<mxfile host="app.diagrams.net" modified="2024-03-10T13:30:41.800Z" agent="Mozilla/5.0 (X11; Linux x86_64; rv:123.0) Gecko/20100101 Firefox/123.0" etag="aXEHpuN-QkaVruu_o_Ri" version="24.0.4" type="github">
  <diagram name="第 1 页" id="aunDEX0gf5P_O27U9tFn">
    <mxGraphModel dx="1562" dy="820" grid="1" gridSize="10" guides="1" tooltips="1" connect="1" arrows="1" fold="1" page="1" pageScale="1" pageWidth="827" pageHeight="1169" math="0" shadow="0">
      <root>
        <mxCell id="0" />
        <mxCell id="1" parent="0" />
        <mxCell id="ALxIER6ZWurh5C5E6ktq-1" value="User" style="shape=umlActor;verticalLabelPosition=bottom;verticalAlign=top;html=1;outlineConnect=0;" vertex="1" parent="1">
          <mxGeometry x="120" y="170" width="30" height="60" as="geometry" />
        </mxCell>
        <mxCell id="ALxIER6ZWurh5C5E6ktq-5" value="" style="shape=image;verticalLabelPosition=bottom;labelBackgroundColor=default;verticalAlign=top;aspect=fixed;imageAspect=0;image=data:image/png,iVBORw0KGgoAAAANSUhEUgAAAPcAAACFCAIAAAAIBPnOAAAACXBIWXMAAA7EAAAOxAGVKw4bAAAYyklEQVR4nO2dP2zi2prAv7dv5TSOtDKNo30yDWlAWkEDDUwBU4RZKcyVhhnpMilypwgpSAqgAIpAkaRIKALFhGImxQwjzSXSG5DuGGkvSPuggQYao5WggcZucINfEVdbQP7NgG0IEDvv/Kok/sNn8+VwOD6/8/3ln//8J0ygT0e3jqvC6DeMMNh9waDXtHqzw1U7n0hkqr3hLsTm2beQBa7auVgsU+dEAIwwOne8RO64bD77fc8kdRQA5EIvM3VeBMCNm5GAPrefJU++RS3yYYyBOX252/J++ujTQ+r186bnw0efvn3+9l3V/o/PfokIa/EX4fK9lwoEvBad1EsNqaT20oUmJ8LonMGge30FANic/00aj/xx6l4FAGDp0O5xHds4/D3qGEWaer1bIINfU56fXuWqdvQmXOQNO//46FPyWu3U63eX3P1zYPaDP45cKzBgsrFYpskDYJQ9EPEJyf383TcFANj83lZS2P700aeXv94ZuWqkdo87roOUzyS/8+iQytFWosiJ179jpNHpCwQ80+ThXySyfMigzwoirK2tSezT7/d1unvv0qDPruqkDhl71FWf5QFf043JYCVhTMXYCGvxF+HO5vsPPtOK5H/RBPosq5s2wj4d2jruWA+/xR2Lfq2rPrsy6U0ZVOJbsab15FvUNtU5l0afZUXA1takmpxJefhvsmdf1a3J5tYPpx4eJXvmn49a0a2NTXGFYUyFRISzpTgATJ3iAKBzBwNWsZyM0uyiX2tiigPQx8kyOIMBlaY4AOjW1qRTHCbnoXyWIxbNmvv08BVeT8ay3ccJoH3+W7JJ7hxGHDP+d6sd+R7LvxRsJVvmjT6PZfkv3ag0LI5HeF0AALZW4Y0O6a86WgZlOeLp8+8K97timWaHE3CjyzLPzjECsQQUZXk7t7efboo4SW0EUZYjNIeCLB/QmUyT2Dz7HHqkXiMC8TAUjLFw7Z5IWh/jCxkCMRcUZLkIABi28EgQiEWBxssRTx/5LB/wnIARa8QSgkEgFoLUt0+2ks3VmGa1SW4e/jyXCIHQClJtucC3e50OJ5KUHl9aQAjE3JF/9snm/FsZLDBuaigCoQnk++VrRiMh8l1+CcEgEAtB4RiLKL8LAqFW0Egi4umjOMtRa47QLAqynNSTGNestBcfDAKxEBTNL2+cvg0XOMJoNLh2jryKvVQEQh0otSjYRqne4QTC7nMtzvBGIBYCcoUQTx80xoJ4+qgoy/P+Z8+ehegBsDc/LYZa/MWzt+fjtzVOXz675rec8nMuIvirQbfbv3r4eRAqynIcxwDDcAxw7Pqn5WMJvf/69evXDwHzdMfNP/gBHftlK3mzphjiASi1m5cAjgNgOLYCqzgOgOP4yqOEMVzbCJ/SG1lE8CJ6RjEn1JTlBImThA0ACILECeL+PMha7pRucAIQlM29d63ndUupnOAOOKGazZU6PJA2j89ru9avG3Su0mA4XhAxnLS4Qt57S7S1B91eIVdqcEBYPNuvbGuK8nJsGLLBw6CRTea6Jl9UwTjsoJHLlLog9noAQKdP28NzYRbvnks/umbXjofq0dlcpSNiBte236Uf3Q3OFvJdr4/FVs6zzLrXfzMqNin4J4+Keiymvc/fP/pvf1q/3jBgzn97Hsv1MNJgIPh6ev9FKD/cwlWKhVwmsbubbgo4gfXK6XD4usPdzWbSuRYPOEmRGFdNx17s5W9fTGxldt8laQ4jMK6aCe8ma7Id6clhSAUPAABsMZMpV4vpTL4vfx9EgeV5nucFABBFgR8hCMOmnasVC/n8RWhr/6IFOCG0LhP78cpgdDfoxu2J+Ea5UKzx8sE/eVTUlk+inT3+wpkjn07dOgAAn+NoK5yJ1zbithUAgF6zt3n4LWQDgD4denNcPW/7/esAet/599ulYn0m/5t0Ptv1jBZ05Zo958H3uAsArpjU1m4hW96xSc4tlglDkjWrx2kQOINHyexlnWPvyAEwoPf++xg8kaMxx3SKRXPg/Sfv+goAYK+fFek6OFwLCv4JoKK2fBKlag+3etzX7/Wq2WHGhVatM/qd3PgcGn1G6yiKAIEf94UNJ0kchP7NJmIzEhmlxYrJYSXETqMz5jDlYUijd8c/fj6PSiXiNODOyOEwxQHA4bRbKRnN5UHBax/1t+UVjgOhl3hevf2TKAIhXH81wya+wZXz6EWx3uFvvsSRt9tw3HLbillwHERRejRDLoylghPE7ZqGNv+R3Eq1qgr+EVB/lmMYBrg1cLZtvPdXgpI+jEm9jhWwjeDZgZXEAaCZ3kq0Ju0sCIDh0s3hjGGoA00HPwfUn+U2EwVFjl1f90x1WLPJgTEYdY/GNPri5Iarfd7kMaPFOGn7Q8K4gSnRHGV3rStfVxbDMOAFAUCpiYhhGAhCA2A4etIo1a8FLwXBd0unmRK4dkJPcZ6SBvrldq+d6Fy+jedqbbY/6PfZNlOrteWGRAgcg04lx7B9limdh3aT9XtZzneytXaX7bZr+XjikjO82nauAsAV22YYhmFqXUEEsVtiGIZhHhLGkH5+bz9xnNg9Lil/JLrqslDQyaWztXa32203am258RnKQmF8NZtjul2GPv0tVry1GGWDZ6vZQrVaOM5MEaF2UH9bDjrX0YlwlLzIhMvp4V8wwhp4b5NuFp2BnVIsk959kx4W34n8mjsuDzeRNru5U82E32VgWDxo+yTgMw0HbHKx3dvSPIXEbuGmNM9sYYz2JEkCgCdJcppnTa8iQSaRGcU5LJcj2azr3Kmd0stMendrWJvpxJ3bz442yQW/tuGz5xJVnuMFgCe3jrmW5iQO+qwgylSW+fkQJbVfFh3GA/m5XI4EErWZQDL4vP9Zkts4+xq1PLnRRS1lOWJBdGulZiWXKXDGyPtT9xNcuRtlOaJ2+jbZIs1u7/bt7IinBcpyxNNHA2MsCMQDQVmOePqoKMuX5gotOYyZTzibKzRfw0glb8oDUVGWq8IVWkAYM55wNldo3oaRSt6UB6KqLFeFKzT3MGY+4Wyu0HwNI5W8KQ9ERc8+J+k2swhBbOU8L7o9eDWTb5PuuN9Ry8bzDO7YCbj1o/dpCdaPkhNWsqclhuMFwAmScvn8jjUZV2jCJUsfJasR/RyGoruhETQwkliLvwh3jHZotnCrlYJWtdojfv3HZz8AQDfr382D0UiRBCa0quWWaA5+T3mAOX0d7lEGXiRIrtwzbJCdHkHx5abh4M8jFwyY8/39S8HotBsJsVMt1nlz8PupomlYbM7/Jt0CMAf//uAF3a8aqXfhgmCw280kLgpcj1/fPvKZ+pVUkuZA5Fr1jmiwmkezAnDbdtSzPvGSpY+qxV+EO5ujmwYATOr1btl89i1qmRjGw65NXaioLZdiWiEIQBSaHeLwU5zINHcLVcPBpziVbb2rtwFcS7N+ZGjSxR6+cXb+Qx1VGVdo0iXLG0bThfGUUFG/XIpZhCDK6XOsggnDgNzwuXS35RzVYv2QehL4ava80p194OJHB+qRwlA5GmnLZxGCMB12fbDu7uGqEWf0voNIN5H+Etv6glNmu9sb9Tnkj5J2oJYYhobQSJZPYCoh6BoViTN6d/SjO9qt5Wk6X8zEnpd2/vzokz5kpkuefxjaQiM9lgk0mxwYvVG3Sa/T6XQ6kBCCbrGZKBA4dv0+ep3SMTKmRJcU2hPK0Ns8/vjHsx2D2Cnl2Js/D9WfH/sicpc8/qgbjWjIHY1INgxJuqXTaPS01FW296Oh7bb8WgiyOgm+mb/IXNZFBR/fdq/9InH5Nq4L+OwGEgOB53o8ZlTkQ/Tze/vJpojZ4e9HrofZBoN2qcoRFEkQOAZCh65xQFipm+rBqy4Llcjk0lnDjp3ERJ4Dyrauk7vkCUdRFgorVrM5N2GFVi6ZLvMAmKIwJGGr2UK1A3WwWB96NxaKtrNcQgiSYPnWz1jETil9fPOUEiMM9sBh8O4wz1hXSPaSxx4loRHJhiGBVgwjDYyXyzKzELR862dCDKPFGSfxsyuk5JJ/PkpCI1ISxlg0YRg9hSxHPAoaMoxQliNmQ0uGEcpyxNNH2yOJCIQSUJYjnj4qyvIlaymTnJqluUJS5Y1mgs35JeJ9GtbPbKgoy5eqpUx2atTiCs0blYTxKKgqy5eqpUxyatTjCs0XlYTxKKjo2edsrhBMsH7o1Cmjc9zaMQMmf0F39e5tqiVt4izZFZpY3qjP0Dm60uFEjKBsrj3PnTXKJTbdjZTJX9Btnc3nc6zJX9eTRgMjiVKu0GTrp5vzv0v3zJEPwwcWtaPX4TL+6/v3Xi4jZeLIMUdXqBZ/EW4ZrFirBWarEetVqx1s4+RT1LYK0M2H9pNNMNrtBlzoVKstwfDr2ZnftCK1ic3536TxyB+n7lUYMOfh8BfOGPh26n1QlE8CFbXlUkxwhSSsH733PFh7cZw+zptTzt5RsiiYgyf+9RVYn9WpAYD5ukIwsbxRPpmuY5snH0K2VQCAndrRu/BluuA5965JbLo561U7Gw5/4YzBb8o0vyePivrlUkxwhaStH/dBZANvZhLRxHFRtAdTnnmsPz/fCkFjyxv16VJLNHi8tuv5Jqu2qJMSO7Wm1KZrxFYuvJ9BKX4XjbTl410hOetn1REIbtTDxTrhPIzMq3LVXBlb3ohv8yJGUfemEOtJTOR54PsTN43g8plMRzQHgyjFb9FIlo9H3vqp5us8hmF8k673Ha7HnHuohFF5I0wHIIqCCHD7HyCKIuA4YDBx0wjSG9muhBPpWIo627OoeDbsMtFIj2U8MtZPO+tPVrGNww8HTqgex3Ltu8+Axjs1Spi7KzTiprwRSRlwaN3phECfrrSAMkpuuoF0HZzsGLjLWCw3xatrxPqZDU1nuVS5nEHjNJFpkZuRqE3vCEY2iFY6kW7cJOf0VXuGzFIhSIKx5Y1WHN5NSignQ9lKm2W7TCkVS9dx+7Z3XWrTHVbWfScHm0Qr/TJKKwwE1RVSLxOtH7F0nChw1KuzgAUAYNUWjGy29guJY9O3I/dwz2mr9ozOPz9XSKK8kcn/+VDcS1/ERtuMzshJcNjhkth0l1Vb6CTI7R4fvz7Cf4/KO/lasX5mQwPj5Up4iPUzVdWeJdNnWd0Ef0di02xowvqZjSeS5YiHoCHrZzZQliO0ZP3MBspyxNNH22MsCIQSUJbPSJ9lWVbZ6CPisVFRlkvLLPMtl/MQ2vn42xfPfnnz5s2bX549j1cW8yrqKW8kRfv87fNnz3/LSu1TO3rx7HWKWWQYcqhovFxKZhnQsV+OxcDfU57HHuViUrFkFds4+LBjJUHgOXEeU8DGgJSlOaKqLJeSWeZbLmdmus0mh5kjAdf6KgCsri5snF0bytK6//OffvndFh2GHGrK8nEyi1S5HJFO5dvrnh33+u2dYvKnNGsL+R3XhhFWLWRLDf5HE2dyXSFpBFYAzED88HSwW0rlBNeOh+rR2VylI2IG1/ZtzZ6xao9c5aMlKUttqXs4MXgAYEvn2cZoGpDeFfL+eAMZOkvXGB5wQuzcbaAeRVlSUZab9j5///EnEAWW53kQBQAQRYEfLU2PCyIAiXHlyyJvcR9dP8EelLLpQmvDFQLgKsVCh+Nz9ebIxMmE692RiXPHMDKInWp6/0VFrq5Qv11pcQBijxNA5Bqlijj8pCUMDtMacLVioSNglXqhR9nNpNC8TOxz2Ke4Y/Wu2kMInXI6XKB/PTvzm/haudDrtHiRILkv6Sif6/QIii8kMxb3kWvS3biBLWYy5RaUBZNTqbI0/oTDeyhY3PGbe0hfpAu9DRcATAx+BUAUBYHnReBb1VZLfy/LB43z/dgXjrDazSTwvRYnAi4TxoJRUZaPRbLIjstjT1fLebrvGIoU/SpdF8lN9/Ud71U740ycWeoKdfLpZFkQAUQBxFYheVwAAADMGnSYhk9SOsWiOfD+k3d9BQCw18+KdB0crolqj1Gq8pHsbZmbsrQ6vId0aeAYLs3cL9NNkXrlsQCAlJekd4fibgCgQ89b99dCZy6Ov3DGaxURoHb0ItyER0VFYywzYPM4SbFJV0drytfppmjw7N18ho81cWarK2QL/f7t+/fv3082SMCdB99HfIvfZCTujBx6rz/3HU67lcLl1J6JlY/kmZ+yZPPYSbFOV0ejomW6JRo9/nVQ4iWNha5yhN2rqokCam/LZTDteQyXmXwZPD7o5+mWaNxx3m4da+Isqq4QTtzprdv8RzYAaKck1Z5JlY+WiynkpAqX+Sq4PdDN0i0wR5wAIKUsSTAocTwQ+oeVOpo3Gs9ygA2P+SJJn7d9nibdAnPQObENGZk4AMurKyRh/agJj8f4JZ3Pdj1Wmu7g1gO7DmDW4FW5lpFWeiwT1R6d02PFe+U8XaZb2J1+yI+MTBzDw+sKTYEStWdW5qgsrTk9VqxTomm62iPsnlHtlNmCX3FRBHDMbfcvlx23gtkkFqMsaSTLJdSeVZfHTnDF9EUHt7rt944amTjsHRNHB5KG0ZxRpvbMwJyVJZ3bY8U7hXSxRzpvxgolg79i2wzDMEytK4ggdksMwzCjx5suOynUL45KTLddOd97ecFPMVq4IGVJMz0WCbXH5nGSxUuO3PRY77fHQj0Trl+bODsnAe/QxHlIXaFpmaj2cA867RyVpSFWj52oFnmDb+/O+LuEl9TLxXYvb66hkNgtAGD2gz+OXCum7YOdTiyT2C0CRtkDJztCcj+vMIwFKUvam3k7pshO7WgrXCYDH869t4/bh5Xn33/wmVYm3q1l1hWau9qzTGYI/qrPrsxU7GkRypJm2vIbfqwIxZaSySJPvTrcHDOjRCLFAWBVt7Y0xVG7KQ4zBT9Dio+UpRZhjWzP18rTXpbfwNLxRK7D9Xo8YY8c7pgefF+yob3apIVwHTtHip+lI2ailktnWqR5++Rg7sqShrMcI01GM+nwWnzuMYu+Ui7fjmW6oQzKYhxM+NKzSior84qYHVvo8+8LOrX2+uUIxLRoZCQRgXgAKspyTbhCM4ShHutnxnuoRAhSzKO4QirKcjlXaHwZoKUyUxhqsX7UcQ+RK6QBV2iGMNRj/cx4D6cXgiRArpB6XSGpMIbD9JNr/Sy5UFEle1piOF4AnCApl8/vWJMJXkJ0miwESRd7umIbxVy+1hMAJ4hha41bQn6X/N1YDCrKcjW7QlJhgKRTszTrBwCuGql34YJgsNvNRkoUuF6vxwOsyQQvITpNFoK4SrHQ6fG5YbEnrFVOh5v9UbEnNh9+l+yQTp/bBu1SrtDiCaPdbpIJfpGoKMvHohJXSDIMSadGjnkWKmrSxR6+cXYeuv/JJB08AEwSnSSEIICJxZ6YXLYJ9oOzuGsVALwGeBmuU96Q+8GXNzsq+vY5A8tzhSSY1akZMcdCRaSeBL6aPa90px24GCc6yb/c+GJPPM8DTrqu7wZJ4CAI/KMOj6m9LZdBDa7QbE7NItD7DiLdRPpLbOsLTpntbm/UJ79yOQCMF51kGV/sCYwOK14uR2nPkVt/xZYuyj3M7HM96jo6Gs9yNbhCahKC9O7oR3e0W8vTdL6YiT0v7fz50bfkGDAcxzGhmdx6dowBAGF+dRh5zO4KaCfLMQwDXhAAfuxT6pweayZRztOrrRZmPVDgCulMFBQ5dn19hipq48IgKQMO9VoT3NcN59CpeaV0Fg1TojnK7prf9Ha9zeO3edzrv21lSjnWd/3tYOI9nC/Fi7JgP/wet7HdLuDk2iIkrCnRSL9cJa7Q2DAeJgTN0foZtEt0pcG0uyzLsu0KXeOAoKibaWbTl1KSEIIkwDAQ6plo6jxfrVbLhTxdYdhHfmitlbZcLa7Q2DAU1voZyxytH7FTSh/fPNvECIM9cBi8O240bSklCSFI4ii7x3qRqLfqwGHDkUheEAnro1a50N6cRJW4QmOrEalBCBr0WUGENckwFlhKaVCJv4k17SffotffYK+Y1LvdS/h1NJr+GGimLb9BJa7Q2Cx59BQHZRe1wGphPNMR7q/HIoqiCBj5mHdGe1l+A3KF1Ije7zEX0pndtzWzgcQxke80mx2wBgIbjxiUhrMcuULqxJv6bq3R9Ua7K4iAG9wBn9eldEnhBaG9fjkCMS0yI4mNUqlSay8nFARiQUhm+aBSusgcx949exnKz3lNLwRieSjosfQr8d1Y3Xj4Pa5wUgQCoS4UPPvUOdxmXOj1Fh8MArEQFD3hxzAMxGVYqAjEItDIPBYE4gEoynJijQCeq6DWHKFN/hqLxWR3+o//JNj//fTlf/6P7XJ/pf7rb0tbQhOBmAfKeiw6h8lAYTzX63V5dawYgUAoR9ET/n5+L10nI1+PXKgVR2gQRW051+VEgkIpjtAoynosqJeC0DJoJBHx9FGU5SKI86xlhEAsF0VZXmvxGKmuarwIhHIkx1iuGtnERanV6giGX4N2qT0RCBUjMyexlM3yOGm0200qWFUDgZgN5Aohnj5ojOVfkUqu9NghTMdVl85V2JkP/387+2lKlyKpWQAAAABJRU5ErkJggg==;" vertex="1" parent="1">
          <mxGeometry x="200" y="499" width="247" height="133" as="geometry" />
        </mxCell>
        <mxCell id="ALxIER6ZWurh5C5E6ktq-6" value="" style="shape=image;verticalLabelPosition=bottom;labelBackgroundColor=default;verticalAlign=top;aspect=fixed;imageAspect=0;image=data:image/png,iVBORw0KGgoAAAANSUhEUgAAAQEAAACCCAIAAADJ3epoAAAACXBIWXMAAA7EAAAOxAGVKw4bAAAXz0lEQVR4nO2dX2giW5rAv9k7nDBDhVlK7lDhDiV3MC8Ki74oCxqW2A8xC/E2tB1oux9y+yHmIclCdCHJQ/QhCWwnsIkPHR/6ZpluL/QYuK3sRNkeZWYUFoVBYVB2sWBQGKzljgWLNSwpGNgHjUl3W6WWf1Jlzu8pSVlV3znxqz+nzq++H/zlL3+Bnqlk47l8ucILgAitweKym5p/r6XDKU7vdpp639QoUEgYwyUdPis2Oi+aNjjdtpnBd5FP5002xXWa2JcNAKCWTXN6m2F6KDv6QV85gMFMHj+Ut9pVrVhgWJ7Q201DOA5hMHeInBwoRzY2gwWBoOiFLZwDGLXTfw404qFQgVw6eeNV3BUkBiODv+l7DbZcFSjzZN13Yu4z/eeAAAAIDT8SDOZu6D8HMJjJou8caHAsj8gZchTBYDB3QB/3xLV0OJItFjIFamnfqRldSBjMWOnjPMBz5SrDsAJFa4nRBYTBjJm+nxPXIp5nIbT+9hSfCjCTQd/3AzN6PSlwFW4UwWAwd4C8cSFhyFFgMHcHHhvF3Hfk5gA+E2Amhf5zgNJSiC2kyyMIBoO5A+T4A/mjp74YS+r1OvvqgcswirAwmLEh06Gp5ZM5huVJq9uuHXpMGMw4wR4Z5r6Dx4Uw9x3l5kDUMzc35403oNb+aTRk/YtzT886L8sffTV3zdeR3rc5iuCvGpVK/Wrw7WA+Qrk5QBAIECIQEOj6p/Fj8r58+/bt21frxv7WG37wjfjuw2fHGX7Q7WA+QaZTPwYIAgARaAqmCQKAIIipOwljZmYGAIg+raFRBC/gZzKjQcE5QFIERVoAgCQpgiQ/nKuajRzF8ywPJG1xbFyLnZXkaYR3rM9DJhxJMhxQFqfbZbmW/vPxSDpfZDleQARlsntdttsbLDcq1VgkmWeBNDlXHllmevrWdgyja/DQyIePIxWDe6eHkeVGPhJKVkCoVgEgHjwqN7eFTK4Nu7bVZvuqk67Gw5E0IyCdfcVj17Z6g7V43ZbWhmrps3Bx1uVpj+SJBX/fUO61kGHjzeU3npufZq8XNIpnXz/YjVQRpdORXC64ueiNNpew6UQsEgqsrQULPEGiairo811f6FfCoWCkxAFB0RRiM8HdxY3ozc6EUmjt+XGcRSRiMyHf2nG26wW8eBhSwQMAQC0RCqUyiWAoWu/eDwJf4ziO43gAEASea8HzzdMCm03EotFz77PN8xIQJF+6CGz6041Wb8TzNxvi8qlYIst1D/6+odzzgBjl8OG3rHH79ZFDAwDgth0884X82QW/ZQoAoFqoLu2/81oAoB73Lh9mzsoezyyA1n126W5vxG3wLAej4YrT3TwosoXq/N6l3w4AV8XTZ2uxcGrVIjk7vEsYksyYnfM6ntU5e5l/rrFtHNgAGvGNfzwE5/ZBh3WYRMK4/vK1a3YKANDjuUQ8Bzb7iIKfPJR7HhAjmakSZqfj+pswbbQZCb6UZVq/UwtvvK2zv4amSeC5TreRBEURwNfbi8il7e3Wl2bKYDOTApNnOqzWexjSaB3+b96c7Uh9TfuBmN/ebyYAANjmrWa6i+Q0UPATh+rOA2mWBb4aeJC5+ZMgAMlf3zAi0X9/+mznPJFjuPatJXWzjCBMN0dAE0GAIEiPwHQLY6wQJHnz5k2L58Ai8VkAhQV/96guBxBCQJjXT1b0H/yVpKVXK54+3o2hha2TPTNFAEAh+CxQEvswzwMipA+lMsNQBqoOfvioLgcsBhoSbG121tnXaoUCC/qtHUdrHKYuiB/0ymcFDulNerHlg4TRppiMs7TVPtv7m5MRQsDxPECvDitCCHg+D9Ac8cknc9fyXw/BV5JHoSTYV733YD6Y+u4HrC4ryVw89Uey5Vq9Ua/XysVsttxtGIckEDDpSLFWrxWTZ96149wHOcAx4Wy5UquUs1F/4ILVPVqZnwaAq1q5WCwWi9kKL4BQSRaLxWJxkDCa1KMbm4HDwNphsvfHx9N2Ew1MJBjOliuVSjmfLXcbU6JNNOIy4UixUinGj77eTdz4r12Dr2XCsUwmdhjqI0LVorrzAGjsBy/4g+PzkC8VbP4Fkeb1lxbpQ+r8+mpyNxRcWw4CIvXzq9tPIoep5iLKYjUymZDveQgAEKmzrrxYdxuag0yR3bUL9nobscBaDABZ9351YJ+SF0brkxRFAnAURfXz5O3R9lYxEGrFCeTSyTuv5ClB4zhdTX4VCq49AyD0S9svHJHNcGtRt+BnFtzWSCDDsRwPMJy3/CsXFc8bbdRrvIBmZvp4v0WjXpvWDPlF2TLCGJB6va7R9Lq7q3qNA2JG0/mLLBF81DN3zC6cvN0xTfp4qYpzADMiKtlkIR0JxVj99ssjx+S/Wx/nAOYjskdPj0uU0eFauZlnMtHgHMDcd9Q3LoTBDBecA5j7jnJzYGwe2ZjDGGe7FNKHCke5OaAIj2wEYYyzXQrpQ4Wj5BxQhEc29DDG2S6F9KHCUe5zYjEVS44sVkufRQWHk8iEomXK4ffYsmF/tEjYVtcd2tbXYgxGWNcNXtXyiUg0W+WBIMnmMZsweT326yajTCyczHOfmm7p8FGyyHI8ECRF292e6+L1XYLHAIAax0az/kUfo7dCoUSYzTSUMpkq+eR3bzwAAJWwZy0Kej1NkYgvZVIlwbh1eeqE4tFjX5XWcQJJsamqboFiqiTNpQq6vV8f2KFRPNvcvOD181Y9KTCZRI4zbl0e9TQZrhbxLAdLAMat7wYuyFCLbjw/Zqh5t8MA5WQkUeJIvdXqPPA6sv5FH2O0Qq4ARrMeVTMZBi28eL1jmQa4yp8+98V4ndVqpAiBZ6vc7MqBG7/8rw+Uex6Qol9ZDEDgCwy5/9pPhgprsYxu77WfDpee58oA9rEZYdIUI+ECWPdO/PZpAHDp4CtfjnZ5HddNzjAdTbdCPFElFk7OcLVo2Sj3fkAKObIYPe+2TYMBIaAW3HbNTYFZhRhhHMcBQdmv5/VQJAE8z7XfJyRmulFaCrhM+CxdwWM+MlHneUCOLIY06Hplze3VlSJV6W1mIpXaiTsPHNqrWvI8VUVGt719KhIz3bTuve1KIPjt7rNvCdpodbh23LYOW8eIo84cEKEvWewapUhViCAIxBeOn80dIgAgjY/2tx1iH75tumkdO984dirZaDweTYR2HyRXf/2NW2xFzKdMVA70IYvdMH4jrDOJ8xRv3b/0W2qVChDUjEb8bqRluulu/01rcXosTsfs189CyUjN7eplttt9ksUkmKgcuJbFzPMkV4iehy5ywm1xXgSry3oeuHjq16y7rToKAc+xVQ7pe7Jh6tGNzeOCgKzw3YF9sCxACPhcaOc0T2umNQghgtIZzYb2ACjHhLNlK00I1Vw4eMHqHm3PawCgUU5mWJKmSJJAwDPxLAukme6tgnotE45lGMiByTxo8KpmonJAQhaTYPxGWEesTvN5IFfKAYsEgec5juMF0tyewc/nQr7ctem2+mLd1TTdBCYZPGy/hRSROuv6/laPbwm6V7KYBOp7PtAV2bLY+I2wW/tO+5d3C9YX73auX4xyVTx9vnYBT373xpP1L/qYpZev3IYpCR2s9WrUvrg/spgEE3UeaCLblpzWzNzZ0ZArMjyQ2ltXboIgCICom7aIJQDIirwli5VI8/bKfU4AmMgcUCVaj9MYC4bWnmaNOopAAscUCgyY19cXRrO/bCQYKlHGlRd790QWk2ACr4XUSyUbz+XLFV4ARGgNFpe99ey3lg6nOL37Hr8aeqTgHMDcd9Q5VwKDGR7KzYExO1Bi1b5U7ZGBSLukSrDJRb3OmnJzYKwOlHi1L1V7ZOOsYqZeZ03JOTBWB0qs2peqPTIYYxUz9Tpryh0bleeRgYgRFj89KmpsN8W5GsXoebyidazQJalqX+PyyCrx0whv87o+HPmpZ8Pneeq6gpiY6dZRnetSxQwAAMqNcvW6D10rLtOtZ4Od9yVe+6x7RykY9Y0LSXlk4kZYJeJ5Hqwat181px5kDx77UsSTly9dbOg4zoLAlnKMoDMbW3MeCMvKjnNWIooWw/LIyqePn2fMv/ul98OmHiz6GPfrb9ykuOkmos7V06cS7cr6F30l2oiYKjKbdUIplatS3fuwGY/1EZmLVWmrkeIKqYJg3X/tt6l7ooVyzwNSiHhkEkaY1nW2lV08DB5Gjafz1YPjBG/ceuGZnYLZrtW+pBiWR0bN0ijGJa/APgXlZJTVLdi0Uw2O5RFFUVA+FzfdxNS5rlXMWIZb2Hu3YwOAuqmnPgQAGbXPlI9y7wekEPHIpI0wx972AlEIBXYChwnBunXqHMaE4SF5ZNMURQgsywLU46HD48NQDgDYCgcUZZ/qw3T7uM6aBNTCm52WbdN7H8qofaZ81Hke6OyRdTPCpm3rWws5XyJHzu9vK+zQRc/SKFPhoFFKFoCAQjzZMBMch6jZru2SqrMmgbw+7Lv2mQpQZw50prsRlonmOIQQV4jn6jb7XcwPFUNDUYjn2EouXaIfregSoXiGtbECQVMAgkS7ZKlzEijFqhsnk5QDXYywcthznEELL17Z4pu7h7sR+qR9TpdR7avNkDwyi5aCUjEaL1D21SU9F/bFIyQHtJ0G0Ei0q5s612+7BrXqRFGws6bO+wERJMpsNfJHgVCJWtresWhtW9sLZCkYCObbjzL7r/bVRE5lMRFoCthUokDZ3dopvcNKlBIpFlGURrpdXeqs9d+uQeqsSaDkAmeTdB4QN8KE5GEgxtKPTtZNAADTlq3tpdJmLHBoeHfQ8tb7rfbV2v7wPDKKpoRMVWe3AsCUyW4lYzGW1tKS7Zrurs71XcVsAKtOAiU7a+p7PtALgxhhfVX7GjNi7epFneu3XUO36hTrrE1mDmAUhcILnOEcwIwapRc4wzmAue9M1LgQBiMDnAPDoV6r1Wq9jadiFIZyc0DaSxLTvsZPOep/ujj3cHl5efnh3AN/ejR7UY7OJrPny2dPH8w9+Drc94qdGG5vKPf5gJSX1IjvPjwU1r87dd71MFvxdPc4gxb2Xq2aKeA5VhjRU1Cl6GzK6Pnh9oaSc0DKSxqbHiVNpVBgkXF7vTlVYnp6ZM8VlKOzyez5Wc+bX3tkrdmB4faGgnOgk5ckpUcJ8dNoeda56riZBQTF6FG8ZvF6bF1LeolZWtLwNR6QjvzowaekbwX1YjwSTzOsgEjaYt9wWgC6V0wbZ1k06FTgrIuYJtHkWvIsnG/N5tbab7ty0kqgWHW27r3RJ8rNAcPGm8uPfwKBr3EcBwIPAILAc60JwwQvAFCITV0kOJPj4LoIRSMZDsZKC3YvAJtOxBiWi7RLeoV8uUqrpNctc0onMJng5mK6Wz2yejldYgGEKsuDwOaTaaF5NiZ1NsMMsNlEjOFRuuVb8YWLwCaLXvtt01CJejePC6C3WnUkz6SCvlj8ycmJx8BlU7EqU+IEkmK/De5wEaZK0lzsOGRyHNjFeqNNLREKpUqQ4g3zvepsohu8VeBMTws8W61WOYAZqZ4HkGpy8w3CAnClTKmkvZ0DbDoRY6pcpKkEolIq6CvUWzpbLeprVWezQDkZiTWrsxm6BC8L5eZARzRSepTdaQ1mUtF43dZUQOqZeE6glhzXnS5S0ktOPTImGjxO8QKAwINQih0fxgAAAJm3bIbmcayzbxU9DubQ0otXXss0AMBq9uC57yIYc57ppSqmde2WIZZFEytwJtnzINFk0Dq8fgcAxL0PStwnK4kogV2qsw0V5Y4LycDinKeEQjxTa/6aixcEnXOjfXUgUtJLTj0yi/eX7y4vLy9fLFBAzO9dtnjnb39fO/lW9XiyJOicLsv1tdO0ZWeeFphsAQAkKqZ1Z3hl0QYocCZLMRNRArtUZxsqKjsPdMGw4dRdhKIpcLqhHo2XBP3q/M3SziW9RlSPrJNvVT7lBETTH3heWgoJXPPwKFYxbbzIL3AmSzETKS3XpTrbUJmsHABYcBrPj+NnZbezEC+BcWtedIJKu6TX+MwppAEQBF4AuPlnCoIAhLKUXCUUOOurOtuAqDQHRPUozbzTHAqkovHpUgmZ9xxi18c3Jb2kLK0hQ9E6AnLZAjiuj6z1eLoE9CM9QHnAbQ+rLFobkQJn8oW7vuijOtun9OmsqTMHpu0mOhCKBMO6VSuFBI4F2jKraS1yWoO+RPBcIKwr1g/WEinpNUg9sv6YsrmW6NS3x95ZWJ3XIa4UDQZzhHXPNQvsQBseYlm0LgXOJHpehKtameEEAL7CCyBUksUiBWAwdBnD7VKdTZJ+66ypMwck9SiLc55KXLDUktP8YZeJlPQakTnVEYPnzb6wETzffd6MQz+//WLLroEBc2CIOlvXAmf9imnVyO7aRbt5scBaDABZ9351IHl136U6myT9Omuqnzv9qR7VyB4886Wo9VdnrptTYdeSXjDeemT1Wk3Tf/mwsdFLgbMRCneS1dl62UBfzppazwNtPvo3XNWSx8cJjn60v9ThWlAiAWC89ciUnADQW1eM0DjtoTqbGDLqrKk+B9rU4v5AhGGrVY60bu+vGgYeRwt7N7JiL6O2rR70PCsB0zfyq7PJqbOm+muhNvV8JJyua2ZNbkeHgWkZJb3S4bOiyGOiaYPTbVP0gXwCEKvONnQmJwcwGHlM1FwJDEYGys0BVXhkMsJQjhGm8H2NDeXmQDePbExltqSQFYZSjDDF72tsKDkHVOCRyQhDOUaYwvc1NpQ7Nqpkj6x7ta+Osph4u25veohGmISKJdVk2cGrE5WNC0mV2aKSO8uBgnH/8pZHtvMwUFo4eec1Zf2LPsZohbZHlmHQwqce2ccVuGSEMQu3ZTGCZzKZEq97cnLi6eWRxbAKnAEA1KIbLRXLAOVkJNFUsZwHXodUkwcIXqUo9zzQEYV4ZNJSlags5uphrsvwjDAJFUuiyYMEr1KUez8gg/F5ZBJ0kcW6MTwjTELFEm3ygMGrE5WdB7qgBI+MK0vKYuNDXMUSb7Jigh8nk5UDSvDIFCOLiatY4kXH+JJCgh8nKs0BhXhkncKQksV6YlhGmLiKJV50jBg0eDXy2e7u7l3H0D9TP//+N+fvf/8n9OWXP/kr//0f/5tDP9P8uLWIqES/e/+ff/ge/f3qP/+DtpXkf/pN+D3zGdJ9+ZPPhO9LqeC//Fvp80fb63M//SF8/qPy++/e/3vlR198Qf4ICf/H/emPJeZ/f/Kz7vpexzCmtZ83kt/FfltEX3z5OeKruV8c/ut7wfxP249//uPuLatHN54fXqQSVfqh/eeDDcUw//GL3/6BKddr7J//589VhqlyfyWon07/EEC8yT8eKHiVorKx0TZX5WggEMpUm89oyaWTdzfvwymePl67YKmlk9fe9g1A1r/oS922o9zr6y7T9eG7HD04Pk+Vrkv8ItK8/vLI2cNAiFgY6dONYKzACtCUxVa3tm4/tZCgkT147ktw9KOTVxsDDkfWkzvPAzmgabKTiiXRZNnBqxS15kAbhXhkHaWqu5TFelOxJJqscNNtiKj0fuAGhXhkHaWqu/wO9aZiSTT5niQATEAOtMEe2QfIV7HuHZOTA4gy6I2UzdXZI6Pt7lVTf4MbtEnfEPPIKLLzAiXhOr00t1UsQudYd49OxVI1qr8fwGAGpL+5EvlkMp0d9I1oGIyi6CcHGunkeehw9/ncV95oZWQRYTDjpf9roXrav7ab0+9f+nt8HTEGo2j6nzeqsTmMBF+tjiAYDOYOkDN3GiEEwiTI1BgMTJg/gMHIQE4OkDMkcGwanwkwE4GceaN/+wVZ++3rb9//V63Cfkb/3c/G9qJaDGYEyLoW0tgMOhpxbLVa4ZTxjhMMRjZy5krUoxvBHLX9dtCSJxiMEpBzHmArrEDSOAEwk4GsayF8/YOZIPDYKOa+IycHBBB6qnWGwagBOTmQLXGIorp/DoNRA/2MC13lw4HzZKnE8LonW9bun8dg1EB/80aT4TBHUHqr1dBX3XAMRsFgjwxz31HQuFC9VqvV6v0uwtwV6UhypNu/qsQj6dpId9Gk7xwYRSGwctT/dHHu4fLy8vLDuQf+dC+LymdPH8w9+Do83EjGxlW9Ui53+Ac3KsV8Npstdv7fi60lY19X9Uoxn01ns8VK54OL9L7S/seBcDw+yq9oNRc93908SI/82Pf/q8zY0R8wf1sAAAAASUVORK5CYII=;" vertex="1" parent="1">
          <mxGeometry x="540" y="499" width="257" height="130" as="geometry" />
        </mxCell>
        <mxCell id="ALxIER6ZWurh5C5E6ktq-7" value="" style="shape=image;verticalLabelPosition=bottom;labelBackgroundColor=default;verticalAlign=top;aspect=fixed;imageAspect=0;image=data:image/png,iVBORw0KGgoAAAANSUhEUgAAAOIAAACECAIAAAAC32DHAAAACXBIWXMAAA7EAAAOxAGVKw4bAAAV/ElEQVR4nO2dT2wiS37Hf5uNeqKoLUXNSmkrCVzwBaQISwlcwIpgFJnZxLyRhjfSY3zw88H4YHsjwwH7YDjYPthIGXMYc5jxYYYnzTLRDmTXjZQBKQ8OgawEidSdaGkpgku3NqGjFb3RuqVNcsB/Z+hu/ra739TnZLu6q3/V/FxFVX1/v/rer3/9a0CoUY0/irJL374J37ch0KoWG+VsOs/bYi+O/bMaPJGjIquHrCP24qD3uNbps+VvsLXXr0KWyyu69ePVrQK5/eEkMM6DqJ0vDhnH/uu4Z+bjot8dp16E5lSzqTRDOlaO9oIuLXwUAGb9x/vNZ9Hkbsb2KmQBsIQDjnwqvf6s6rCSOCYJbKPBgnNjY3GcpzRPv042yLWj2Kc+CgDfQ73pIHDlTEmwhQLz923IvVEv1+c9N81vValavdkSJcBwi90V9I39ZrhqWbB57P2cFLkpwhAMNOhfcHSD5UXc5pvXaKBBIG6j7qbN7OZWqiHhpHlxG7kp4l5Qc9MulU43iKXnbyKf79cyxL3zOyrlfLMtkc7PeOqA0ANqbioBAIZpYQkCIYuamyIQOkDFTbsCL2LELKGNMQhEf2SnUFw5k63SjUqDXNoPmLQ0CYH4GNneVBSabZblJdJswbU0CIH4FJVdKC4bXk5jG29PUIeKuEdUvpvO2myEJLQEbYxBIPozyExfmroVCIQiaEEKYQAGc1PUnyLuFTU3JS0kxjfKTU2MQSD6o643rR8/i+Z5wmaz+tYOgnZtzEIgbjOQLJqrF2ssLxLukM+iejECMXGQeh9hANBMH2EA9OKmufDCwkKE6gJ3/dN0qMYfLTw77V9WP/5i4Yqvs4PXOQ3jL7qtVudi/Hq+G+jFTXEcAwzDMcCxq5+0Zz7y4u3bt29fbjiGu2/yxnep3cfLyYo4bj3fFfQSp4/jABiOPYAZHAfAcfzBvZgxOzsLAPiQQvBpGC+htepb6MZNCRInCRcAEASJE8RdVVY1e0zVeREIs8u/eRXx0iqeZEX/hhcqmWyRFYB0BUI3ORbqVLZcp3lBlDCcnPdFgp7bFTa7rXY+W6zzQMwHVp64ZgdyrL5mqBoP3XommW3ZQzsDLOd169l0sQVSuw0AVOq42asLmw9u+iyXbfatBcxtKpMtsxJm9a2EfZbLt8G7IiHXZUVc+TRDzwXD12szcsYbAr0M+vbNN+evwjc/zV0VdOnTrx/uZtsYabUSQi219SiS65Xw5UI+m06sr6caIk5g7VIqGr360tnKpFNZRgCcNJMYX0ntPtrM3TxMYtLrq0mKxwiMr6Sj68mq6pdJeTOUjAcAAK6QTpcqhVQ611F/D5LICYIgCCIASJIoXCKKvc6VrxbyudxZZHnrjAGcEJl3ia14uXv5Nqj6TUVCvZQvVAV14w2BXnpTOZqZw294R+z1sd8EABDyHCxH0/HqYtz1AACg3Wgv7b+PuACgQ0WeHlZOm+HwHIAldHoeuq4kZA8/TeUyrcBl1iO+0fbuncd9AHBBnyyv5zOlNZeiVFHFDEVmnQGvVeStgUHEkCbP5oEHoEtt/vAQArGDPvewhYJj48Xr4NwDAMC+XChQNfD4pmS8TtBLbypHsdLGnQH/1Yc14/A4cJGpspe/k4tvIpfDnMlsJkAU+s06cJLEQexcFxFLsdjl5/rA7nESEltn+9w2uBnKWPzxV29Od5Q8aRhwb2y/56MA4PG6nWYV3fpYxusDnfemZZ4HsZ14WLn5kyQBIV7NLzDZT6h8unNWqLHC9UyEvCnD8fmbfmQex0GSlOfUamZoCk4QN4mWXOEDl8K1ADozfkR07qYYhgHu3Hi+YrvzV8KsfBt98uVuHlvcfr7nJHEAaKSWE4zcxaIIGK7cIY1ohj4wtPGX6NxNXXYzFHhubm64xJmNBg+27R3/5cy6I8l3Hc3ThoDZ5m1y5eOYcQ1dpHiz2zfXP91cPzAMA0EUAQYN7sEwDESxDtCbw9eLtauQiwGMbxWP00XwrUX0qtnQ+3dTd9BNsO+exbPVJtfpdjpck65Wm2oTcwLHgC1naa7D0cXTyHqydsdNBTZTbba4VrOaiyfe8dYnK94ZALjgmjRN03S1JUogtYo0TdP0OGb06OQ2txKHifXD4uCbUzO+eTOw2VSm2my1Ws16tam2SmCeN2NCJZOlWy2aOv56t3ATGKRqPFfJ5CuV/GF6CAu1Ree9KZh8B0fiQfIsHS2len/BCOfGC5dyx+TdWCvuplPrT1OAETbvWuyr7GGpV0S63A62ko6upgEAI6zulaONkL23bJDdXX/HX9WRT6znATD33s8OfA9GM+PySpIkAASSJIfZNHgS26YT6Us7gVh6/j6i2LGa/CdrxS/SqfVlANy2FDvyZ7cyl0Vqxs8uhtzZREXgBRFg8B5fQwyjkOp2OFHCZmeHiHDtdrgZ04RTCI5gxph0Oh2TadDHXXQ4AfBZU39fUzA+F15I8ovP3+7M63KRyjBuipgS2ifzHwHkpp851eNnSYZ0+IMrmiXzHwHkpggDoPeZPgIByE2/q3Q4juP6L2IpFOkWvbipZup9jc1QrnAaEv1mLv7s0cLjp0+fPn288DBeHqSoefrs4cLDrzODP0Xjz0sv66a6UO9PwQylCrvU7uNDaeMnJ4HJLQLRJ7vJCra493LNSYIo8JJlkKLh0fjz0o+b6kK9P3EzlCucuES/1WjwmCO20duXnZkxDVQEc+E3H4Y751Ljz0s3biojgB9Fos+VT3OSP4BX0rkm6Y+HPdVMPEfjnrUNv+XybWqgw1eocGSJvmyTrxA5ETAr0W91v38RVzzN1C/lYRZfJPixqr/bKhdyZZoXJQwn7b7NoGugFzVp9L4gVY0/irI2NzQY3Ok0A1OptImvLo+4bWXC6zmw2cwkgYlMpcRIju3zkwDQx19G22arIBEkX2pbF0m2TZiFUsO69+HAB136dGvrnWjzum2ExFYKNcGxfX48kKaEy4afphgAx/ZPxkr42imfJCkeJJ6psZLV6bjcRcVdKzuBOYDqwaMo635C1PJts9tBCo1SQ3L3TpyVa3KnWWZ4AKmdS6Yb1q9iQXuvSsLqIUXZIvsstKjjs7IggcBUGGLj21fB23a2qJ3oYUUgbU6bGZd4lsFDrw9897GbqpfeVIlhJfoAkthgif3XcSLdWM9XrHuv4+YMs1prAvg00+ErMLpEX67JfC6VLIkSgCSCxOSTh3kAAMCc2x5/XbbIPgsWfyTuBwAq8pD5KIstlz1MViR37MOBf6zWTgIjuOnHEn1WXqLPXEn0zd6QZwYAw4D0hnwmaF4FixYrbdy5dlfKXmCqLLgGGMct/vgrbT6zjyX6AvQZVm+a7Ir8+H0EAOjjL9dLjr3znVtaaZ98kRKtEsVIto2N+/dRMIabjiLRx0zY1c2m27cbRcouK9FXikqYKHyTB8Jt1ccGqhHcVIahJPpXGFvKPlKTRwUDkCTxAkAHmikDu+kQEv0btNfhKzC0RH+kJo+I1W7FCo1yo+txDd/YSYcD6GUXagRUJPoyaK3DV2B4if5oTVZAIWDB5A15SaGQiB7nqnSr1aSrVIaiB9sym3g4gIF7UwWJvgLa6/AVGFaiP1qTFVAIWIAZ1/bzfTyZLiSjeQAADDcv7T8ZaEY18XAAva+bqjKyRF97Hb4CQ0n0pxGVoMxQ5vWYbDiA4d0UoTemEQ6A3BQxWaYSDoDcFGEADDzTR3w+IDdFGAC9uKnGanA52byW6n2dBCwYAr24qaZqcPnM9lqq93USsGAI9OOmmqrB5WTzWqr3dRKwYAj0sgs1mnofZHT41MkxbfLcJKLv0rkzqmXxr5gZJdm8Vup91SLER+h9QUpJvS+vw29lw6uptiP2sre8XD34MlrCv3rxIsinlWTzakxKvY8YFr30pkrIqPcVdPiW4Ol29dFh6jDnOPG2D5IF0bF9FJ57AHOqsnklJqXeRwyLEdxURr2vrMP378Xqq7vpxE6Zr0juvZPAJBRl2qn3EXcwgpv2V++r6fBnPBvbi7VooUZ492OTOp4BcT8YwU37o67Dr+RqAoZhQoOqdTw+NE4bGL0sSA2Py24Gkefm7mIxXS7rNDPhZAVb3H+554XK4W62eXsxv5eofpQTQekiVRxQRD0mreLxzs5xsaXFs3SPcd1USYffrR8n0gy5FNtxWTzbsUWCSSVS9WvvGl4232PC6n1F9J8PX0sM7KYm38HRthdvpKOrTx//8PHjp6tbh1lGBOgUDxN53vwktjEPADDj2o4tmdv5xCF1fe+T2LYbZ9LR1eXl5dWtw1x7oCf21PvY5NT7CswuhtwEgMT3jfb+3ND7uukgjKPDH0GXrhk6z4evJcadQt0wY5odOd5Gnz56KYBnCGdsBfkofDd60+8cxsiHryXITREGwMBTKMTnA3LTUTBi+npDoxc31T5H/WgoZLafIBofATBZpvEsvcz0tc5RPxoTTV+vgKZHAEyaaTxLP26qaY760VBKXz9RND4CYLJM41m6cdNhc9RL1EmuORdY88/dvAU6d0xxrkjYc6X5xyr5TLEuADEfWHnimr25Ui73vjL909crpsqHDk1lqTLLSxhhdvk2Ay4A9dMBtAwiuODqhWyu2hYBJ4hez4fPR8I+lRfVt11qzxoZXS9IKeWoJ4s7TxMNx/75wdUZCd3izuMEs/j8fWS+Gn8UZR1uqDXA4bRh7UqFxRaPXu+4ZpQ0//J2yGe2t88qpsrPRbaSDbC53VZcZCsVRrR+9fx52M4qng6gxiSDCLjc5mqSJb0hvx2axWyBEQib2x04iPiVXpRcu6bWR+ulN+2LYo56X8CdqpRyVMfTU0Z3KlRNIpf8V//x7Qrr3TuP+wDggj5ZXs9nSmuugGmU3PusfGZ7e2/5vX+q/FwyVcOWjl5GehlC16oHq9F3qXzg1KZ0OoDqa5lgEAGdzTTAvfc87psBgKAVvojWzMGIH0ApOEK2XcFpbUboZaY/Aq6Al5QaVIXr/VqjGpI1sHk9DBJLsSs19AO7x0lIbJ2FS81/4K7mX2SqrOKTIj9+f35+fn60SALu3Tu/5H382qU+TpXvNOPQoYqMZA0Er7PYzrh2vGaJrTYA4Op0ADuGAbkY8pkAsIGnGhZ//NWb050JaL0FQQCcvD6chCRwEEXhAkDhRam0ayroujdVwb4ZsL5L50oQCEEnRzGSbc17U4rjt3bD53EcJEmcWu79fqnymyeChJnNd3LjW0hMEnonhsidDqApNo8TL5V2qMCB33LBFc9KbcwR8j0ApRclNBXbNRWM7KYAiwHHWZI6bYYCDYoBx7ZXdtARRcBwHAC0y72PmQAkSZRuJ6+XJAlwHUU6YziOY2IjubxwiAEA4XiyH+sFe8kHR4iM9u0yhJvK5qg3eQPOdKKUo2YYBnPu+eW+qzVPGwJmm7cCmMbMvT8EpNmKQ63aAP/VJK9DlRkwP7EBNMese1JHABTOSqJ7/zzu4lotwMlZ07XnyR9SgCu0awBGSstvhO+mCmL7GV/ATfCF1BmLO/3uO3cJbKbabHFcs5qLJ97x1icrXhOMl3t/OB54gktmsZSMZMpNjmvRxZPdVA13rwQHyAigyASDCDAMxFp65+Q0V6lUSvkcVaa5y90+2Rc1XrtGi0owRG+qlKPeFfCShXc8uRRw3p2qi7V0tJYGAIywuteONoK95ZJxcu8Piz38Zl/aTJ3trvbssHljR9s+EwCveqsSEzwCwB1wniVqTA14TJJEURAEUSKcsRfH/lmFFyXbrgEYLS2/rtdNP+VTsX23erAcLZEbL0+DN4NINf4oyi69eBmyP5B9E1rm3u9wnGlWf8rRbjn+dLfhPnp/ffLeBX2yuv4OrvLK9K6Sf1GjtWuEqARj9KbXfOSjF1wxmSwI5if7S32+6Cj4KIyn+R8WPfooAAg0KwJhuTVnlyRJAoy8Y63Cixq2XSNHJRjMTa/hqHgiy/LttkC4Y/tr4+9/ZCKbVbk0fZ61g4G3JY2EJRxw5FPp9WdVh5XEMUlgGw0WnBsbi9N5XjWbSjOkY+Vob9ioBIMN+td06tlMuWOamw/5+xwVy5UzJcEWGnizHgDKmVNa5kv9jD0Q8uiyO5wErSpVqzdbogQYbrG7gr4hXppmGNVNEZ8VRliQQnz26MVNDaHeH8EMrXX4zdNnDxcefp0Zqk7NTiIYGb24qZp6v3+qfE0ZyQwD6PA1PIlgZPQy0zeEen8EM7TW4c+F33wIy9wqi2YnEYyMbtxUx+p9JTN6y7UjS9knqMPniqeZ+mWXaPFFgjeNkju/QLVd+jkdQC9uat98c/7xTyCJnCAIIIkAIEmiIPT+63FRAiAxvvSuIMz7b6n3M6k8s+iLAPDlQp7lhey1ej8drbU+Ve9bJbaS2npUVlHvK5kBd6TshMiWUtE8dSNl79uua7hCOl1ioCTavYPq8GUr7G12SiAwFYax3HZTvlzIs20h2zu/AGNKqWij8+2bsEq71IzXEr24aV90ot5XNAPGkbJPMpm/xR+J+wGAijxkPlV+9j2/QLFdukIvU6gR0E69r8CYUvbJ6fBV+Pj8AtFY+Sh13ZuqoAf1/n1I2Ueh//kFhsHIbqoH9b4RJPrfAQwx6Mumyjd5A068XcpRJYrBbg3lH3Oj3lfJ2D+0GaTZigNze4jvSdltg0nZtUzmL8voJxFohhHcVCfq/b5mjCdln6AO/4Jr0jRN09WWKIHUKtI0TdMD3TnqSQRaYoxBXyfq/b5mjCNln6AOv53dXX93HRWQT6znATD33s8OfOoDhcLr1QkGU0jpRL3fN2O/TiX6w6DbkwiM0ZteoxP1ft/P0ug+Cno9iQAM56bXIPX+Z4VR3RQj7TYH6Qn2V++bfaG1+UHn2pe3zNu6cup9khjBQsQEMdh3U8TnidKCVL1YLFfHzc+BQIyPvJt2y8Wz9OHu6sIXkRw63xVxr6gN+p1yfH23Zts/j3uULkMgponaLpTJ43fgYnuwo2cRiOmgvlmKYRhI6LBsxH1ihD19xGePupsSswQIfBn1p4j74/u7u7vKV/zBHxHcP77+5h/+nWvx3zf/6R9rlh8MgbhigEHf5LFbzZjAt9stQR+ByIjPDfXN0k5uM1UjY28PfKgfRdwT6r0p3+Ilwox8FHGPDDDoo4Eecd+gBSmEAVB3UwmkIXL5IxBTQN1Nq4yAkaTqZQjE9JCf6V/UM4mzIsOwovWrbbfsZQjE9FFSSBUzGQEnbW63faAwdgRiWiD1PsIADDrTL2eLckUdjuO4cTMQXLSobJkbs5LJ8gv+P/+V/9V9GvAv7Z+y/zPxav/u7//jFxNaZPzNP334Fa1F8omBQvbK8S8TDfO22+e/G+LbzMUT6VK7l9YF8+5/GF073a7lzlJnzf0XO577j8H96flPf1T/71/2fvn+n3wT+Yu/0jy08Tc/r/7wb7lfwu//aP8vE59Ed//zz//rz//sByNU+2r/Z3/zb7/9M/hB8a/HXb357bd77Z3i/4L5N2ff/OG457De4aLV+j/Af89y4wn/DwP32GZ1s3HiAAAAAElFTkSuQmCC;" vertex="1" parent="1">
          <mxGeometry x="880" y="499" width="226" height="132" as="geometry" />
        </mxCell>
        <mxCell id="ALxIER6ZWurh5C5E6ktq-8" value="" style="shape=image;verticalLabelPosition=bottom;labelBackgroundColor=default;verticalAlign=top;aspect=fixed;imageAspect=0;image=data:image/png,iVBORw0KGgoAAAANSUhEUgAAAZYAAAFGCAIAAADGpC7uAAAACXBIWXMAAA7EAAAOxAGVKw4bAAAgAElEQVR4nOzdf3Ci+X0f8I+k3UcX5+Fig+17NM48JDakHWimyHEhrWGnFdtGrCfiNllum2XlWKtMJU0iKanAHok6giaSnKxwRlDPij/WSnLHjm9RfQv2LdhZGHthYkNmCm0K6RTaGpKUx2fz2DWP4+PZ1ap/gCQk8UuAdvXj85qbuRPf58eX51affZ7v833eT8+Pf/xjQAih06n3RXcAIYTa11IJKxWy6XS+851FrVcu3VzvfDu78p7JS5dM/mIXN4kQOk2albBC0rs6ef366PiUPYiVAiF0wlxo0Jb0mGyuGEPKZBTBMs+tSwgh1KpGJYwkSNnY0n2jJmq9Yu5eCUsXszmfJxhnQDioH7umGuivNBSSfo8/nGF4QkirtDN61d46DZqqFJPeDX9apDIaNQNd6y5C6ARrdCEp1lutRk2Xd8inXFPjdj9DCAkm4jJP2aPl69Os1zQ+ZQ9kCIqiiFzIab48uZ4sNWuqUkyum832ECPG+oXQ+dHoLOxYMInc0OJDqxYASknH6JTPHZpQ6UVeuzNGjNy+a1IJAAAmosvj5k2nT79uGGjQtLvVUtptNt9jZHMPVvXP+xshhF6c5z6pQjgyP68t/2e/XKMU8pl4Bgr+YIqX6A3lIgUAAtXCEM1noolGTTv4lMc868L6hdA59NxLGEkO9u/+MEiSwPMcsGmWJyiaql5QTBE8yzZqqmC8LleCV4zNYf1C6Nx5wVNbOQ4IkgRCBMDzHF/dxPM8NG6qoAzz82oy4bQ44jjtA6FzprMSlo+6l60Of7rN1dPrCZaQDcqAoiUkpKquDaHgD6eAljVs2kVpF29PSJhNi8XTZk8QQqdTo+H8YjocyXAAfJLhgWejIT9PAClRa6SVcanohs0V4CDAiBXr+hZvA7IZdzStpgk+l3A7NxnJtfkhAfRrDCN06J7dJIWJIQnBprxOZ4xULxqk0C+t21SlX2q8vZifsjhfXSAfLOvaPBgIodOmp8Fj3tn1m6P3cgc+pG/cfWOyUj7yftP4Soynr63dnZH3H1r/8Ab9y3Z3JJHjAAAIoURtmJ42DooqrWHHjNOXYHgAIISyoYm5OZ20v3FT3jN53UnOv72qE1T6M7USI4aX7i90ey4IQuhEalTCXohCPi8aqH1G16AJIXQ+nbgShhBCrcOwHYTQKYYlDCF0imEJQwidYljCuq+Qz+fzhRfdC4TOheYlrJhNxqPRaBJTWwEAIL1+8/Kly7fctRu91ptXLl29fv369auXLlvDra2FEGpbw6SKfNhhs2+mKk8jEvTw/O0FLc5qqCfpsNgjxPDi3QklBRzL8OIX3SOEzrxGJSyf8MZgaPGuUSsV5aMOi2VzxT6oXT0Lc9+L6bRAKm2+3GHSyTceTdZsySYSDKGYn9ZKBQAgEIhaWgsh1IlGJWxAt/rGTr0aUM2MKX2WWDQMug5nvr/41NZi1Gk2R6gbS7cnBwV7H2f9Dg+nMRkG9y1ciLo34pRhUksE191xrvyhWHtwMQAuzwEhEQr2f5pvshZCqBNHGc4nCCCA6HCHJyG1VaCaW5tXspvm8QV/dm9DfDri8wQPLpwJun0xBgB4nuNYlmUzEZ/Pn9lboJAOh8PhcDDBcMAz8WC4ojx6WG8thFA3tJzaWoyGExyp0NQ+/2ndyUht7RfrrHdpt8WyMjWVXrw9oxIBACWlCR8bLIG2H9JBLyMZ1oj7iyzDERRFAfTrTFYdAPhNl1Ns1bYyXqc9xPEAPAd8ymdf8QEAAKGc08gHQFxnLYRQN7RawsJ2e4CTTU9oO93hwdTWzVA8A+pYMMVLxg5EswY2owkYStRt2ilhfMpjttVIbc3Hg9VVQyjTDlafnwnkRscDevWWzTyem769apAKKIrkUwwDQPpdK/aUUqhZ1jBZFiiJtsFD7CrT/QcmAEiuvjYVUiw+XOi0yiOEWtZSCYs6btlCMLS0ZOj8Hlv91Fa6dmproW5TBeN1uTK8Yu5Qamtsw2bfyxkjlIvqwYGDpUgzMTeSmNp02T3KdQMtpYlIloViKpgAEhL+YFFJsixBtTXwjxA6fs1LWNRxy+Lj1ItrVo2o6cJHdSi1da/E7KS2Qt2mCsowPxY225wWB702Uz08r3c8bnJVmQ+vWmwBXj13Z1EvBgCKIjiWycbCKframCTg8kcYDcOT+wsoQujkaDKcH129ZfHxQ4tr1przwU5zamsx6Z6ZsoSIkaU7y/pKMJlKTAGT9PoTlFY3olOSCb8nyQItpdv8ggihY9bwbd7rtyy+DKm8JmVjXm/lQ4JW63ZSCk9vamvWv2C2xwj1/EPrvoVpCphQgKGMq+L+kk5NmgMhIIYoEQCU8ukMywNwWY4HPhtMJikAuVzeeEftrYUQalGjEpZJZXgANrbpjO19SA5TuyWMHpSRgRhPyyTClnZGqdSKTMRlHndBObV17Pa0sRz3Kp98Y4mfcW5YKm2yofnbc1pRk6ZqApXp9hwztbLy2jLZJLW1FPd6MtTYmsN4sJRQNMVHchKtGgD6B7Vqoc/H0GIaACDnsUxt7r7T3Geb8gEQ6sW3lxsN9be5FkKoRScu8hBTWxFCrTtxJQwhhFqHYTsIoVMMSxhC6BTDEoYQOsWwhCGETrEmJaxUyCbj0XA0msx2LUm5VMxmC4eCJsow3RQhdBQNHzCKLl81B7idn0h6eK7z1Nai33J1hZ9+y6HHiVEIoU41LGESw9LdsUHpAADko+s2yz27U6Vd7jSsgufrt2G6KULoKBqWMJF0Zx4+DKgm9bJ7K7k0QJslrBj3uIJZ4HM5APA7V9Pl57SJQcOMVlw/3TQfXvfyOj0ZcXnTlM46qYm6rd4kqZmY1okr53FRz6o/znAgpFW6GT3GoiJ0jrQ8nF9KphkgJe0/3MdzeZZlWZYDAJ7n2AqOK5+U1Us3ZaMhn9e54owCn7rnXFiesYeBz/jsrggAQDG5fuuyxZMjKIlEyMacs1dM3lo7RwidTc3CdorpcCzHcUzc74mQI4vT7efmizQzyxqAon/mEyugn1/W73/KsX66Kc8lMsKl161CV2LKF5Esvm6l3anxWBpAm3av3GMU86+v6kQAAEbN8qjZZY0OW1U40IbQudCshDExt8vL8hzL8qSMyzFFlUjQZJXuo4eMGgEAQQA1ZNSKIE1UEvyDkRypnNDtFEOBQqMgA6loBlQYBYHQudCshEmN6/eNAFAqJH0rFueshXjd0WquTtcQokrJIkgRWfV5mGGAy9kuR/Y+4nkQcg3uFyCEzpRWs/P7RXLDxJBnfDOcKOoHnv+JWE0EQQCpnF4bk+37VIgJhQidFy2/wQigyLAcCCmqqn7lo+4Nf2HQOKNrPV2eIAhgOQ6g8xhrlZyGAJOXSlt6axFC6OxpVMKK2WSOJ0mSAI7NpfxuVwgUc6aqSQvtpLYKtIO0zeVxuiUTaorgWQZolVTUZrqp2qDesG3etIqmjWoJRQDHMjmWkKmkJ+Q0ESF0zBqmtrots4HK3UFCKFGOLK5P7psUdtTU1rJr83NJm6uS3QrCkbUHJlH9dNOGb94QaZdvc8v2DZc55Nzpp3L6DpYwhM6LJpGHxUKe42HgeLJSC4WCSNSdtyIVC3mOJwYGuv+OJYTQSYaprQihUwzDdhBCpxiWMITQKYYlDCF0imEJQwidYq2WsEI2m81mj7Ur0DjQtdtrIYTOgJZKWDFsHR8dHR2dXY4fZ1+KfsvVUXuEa75k52shhM6EFkpYMep0hoCmyeaLdqpRoGu310IInQHNn5GMu+wBGF6aIOyWSNOFWxF2rwaTDMsBKaRorXFSM9Ak0BUg7veE40mG5XiCpAa1JoMGmsXAZoMOD6MyGVWVvebD6+6k1DBZ3mDNbnTl2yGEnqdmbzCKr674+OG5aU1XzsFKccfNyzZPBoQSmYwWApPLsdA00DXrdjk9KRZIiqYIJuK0XJnxNl2LCQd8/qrrXjYe8gWibKNuIIROnYZnYaWkyx7ghxYXVALoyihYwh/IkcNr66b9AffNAl2N6w+Nuz8Z5ZPXnV53Vm9svNbRu4EQOnUanYWlN1Z8nHpurv2w6YMoMQVsxL0ezhbb3gZJUSRwhU6G77vRDYTQSVD/LCztXtnklIvTmi6mPoiNi/NZm/OeZfQeSSvUOsOCsaX6GF5f2AjEMuzuuH3D/Ipj6wZC6KSpW8KiHneGB37DfGsDAAB4hgUuYr91i6QNi1Zdu2PfYt3CF3UL2ajX7/cGXJbLwYlHXzQ2XiXpeM3iI4bn1haVFAkACeeoLdXm7jvoBkLoBKpbwiiN8RpZ2PuZTeRyOYpWKOgBitj5sJ3UVgAAsUo/qdLrpLdGXUFP3mioFMTaga6JBAOyuQVdJf6wwB/Ixq+9FkEQwHFxgPJ4VzwYOzxiX6cbCKFTo24JE2uMM9VXV/HVUIiVGGZmOkhtLaaDEUZIU0IhSQCX8UcZECrp3bjEOoGuQpKATNiTVA4J2YR3w7UZ46svJOusRQ/SRCDi9uiESkh57M4QC0C01A2E0OlxhOz8w46a2spngs6V3Xn0hFCinl6aq37lY81A16HpiaDF5Zy67gRCKBuamL/hWQlVb7bmWiKdYyL4qss5NQpAykbmb+s8s+4Wu4EQOi1eQORhK0mwhwNdi4W8QNTkTO/wWqVCngVyoNa7L481kBYh9HxgaitC6BTDsB2E0CmGJQwhdIphCUMInWJYwhBCp1iTEpY9IH+8DxWe6tTWRt1Ir9+8fOnyLffz7RFCZ1/DeWHR5SlzYN/z1Ir5xw7dcfWl6LdcXeGn33LojzJHq721uu6EdAOhc6bp1FbJjbUl/e5keOJ457Cf8NTWYjotkNZ9lKpRN6STbzyaPI4uIXTONS1hhIjq8vTP05raWow6zeYIdWPp9uRg1VTZJp3PB9fd8cqZrFhrMuw8n5UPr3t5nZ6MuLxpSmed1ETdVm+S1ExM68SV87ioZ9UfZzgQ0irdjB6zzRCq4fkO55/q1FaBam5tXslumscX/Nm9Ma8mned5jmNZls1EfD5/pqo/0ZDP61xxRoFP3XMuLM/Yw8BnfHZXBACgmFy/ddniyRGURCJkY87ZKyZv20cdoTOs6VlYxmObiZIkSdGDGp1eJW62fEOnPLW1X6yz3qXdFsvK1FR68faMStRC53Umqw4A/KbLqf11kucSGeHS61ahKzHli0gWX7fS7tR4LA2gTbtX7jGK+ddXdSIAAKNmedTsskaHrfgkJ0L7NTwLo1Qj10bUMgklJLiUz24efc0a7mhvpyG1NR8PVovn9zcL5EbHg6Uh8JnHTZ50B50AAHrIqBGAnCCAGjZqRQBEJUsjGMmRSr1upxgKFBoFyaWimbpbQui8angWJtZOzmh3f4qvvjbrczmMmpmjhYNVb/AUpLbGNmz2xO5PhHJRPThw8NxHMzE3kpjadNk9ynVD+yemhKhSsghSVP16lTDDAJezXa56YxTPg5DDl80hdNARwnYGNTLSF2EZgLZL2GlIbdU7Husbr5wPr1psAV49d2dR39mFdR0EQQCpnF4bk+37VEgfx84QOtWOMJyfjuc4oKXVv0f5qHvZ6vAf+XpKrNJPWr+4NiHhM0HP3pVaOWn14CViIsGAzLCgk4tFIpFIBLVSWw+vtZvaWlY3tbVGNxopJt0zU5YQMbJ0Z1kvrT47q92NtqjkNHBMXrqfWIQDYQgd1OgsrJRPZziCJAE4JhX0uO7l6JHbxqrzjvOW2pr1L5jtMUI9/9B6aH5vnW6U8ukMywNwWY4HPhtMJikAuVzeeEdqg3rDtnnTKpo2qiUUARzL5FhCppJ28VUsCJ0JjUoYE1qZclWGkAlKMTS3tqDf97t3vlJbS3GvJ0ONrTmMtQtQzW7kPJapTWZnEZ9tygdAqBffXm44mifSLt/mlu0bLnPIudNL5fQdLGEIHdQk8vA4ok3PfGrr4W60rVjIczwxMNCdrSF09mBqK0LoFMOwHYTQKYYlDCF0imEJQwidYljCEEKn2BFKWD6fzeYLx9cVOOWprQih5695CUv7V003r1y6dOn69dHR2eOMTi76LVdH7ZEjTnBvby2E0JnQ5BnJ+OpNs4+TjYwtzikkFEkQZOPlO3SqU1sRQs9fwweMko4VH6dcvLus7ebUyjOW2lpWyscDHm80xwEpFJIEAAA5aJrUZoMOD6ebHiIiPncwzoJwUD92TVUVfXHkbiCEqjS6kEx4Q4zE0M36dRZTWwEA8l7z+KwrAXKVSk7kIj6fL5JhOb7SDc+GbWrc7mcJIcFEXOYpe7TYQTcQQlUanYVlMixB5t2rC9FUjuGApGU644RhsIOKdhZTWwEg6XEnQL24ZtUKAMAggVfNMdpg2nkUPBfJDC0+tGoBoJR0jE753KEJlV7UdjcQQrsanIXFsyzwiUiQpTSGsYkxvYSLOGdnHckO7v2d0dRWlmWBpLQ7V5eUkASOY3ePk3Bkfr6SHNkv1yiFfCaeadoNhFArGpyF8cADOTz/xYXKcJJWLeSu2wLexIxcVX+ths5oaqtMoyRDoQW/flknLuWDG6EcoTBqd1ciycG9DQySJPA817QbCKFWNChhKlIIfHWGn0Arp2wRpqPxmjOZ2kqQJElwCfvopRUCAISKa0vzdV8YzHFAkGTTbiCEWtFoOH+QJvlUPL57QVQMpxkQ0lVnQJjaCgAAgY0Qp156+Ojxm6/fffOttx84dkfJDkmvJ1hCNijpsBsIobJGw/lKwxA1G3A6B+eNCiGfi7icIV42bdgbfMbU1jKCAC7mWnDEaZFARBAESUkUSvnu5SebcUfTaprkczG3c5ORXJsfEnXSDXSu9P3X/3ohGHyq1W5/4AMXv/SlrV/8xaf/+l+/6E4dryN95SZ5YVm/1eYMZTgAAJJWj83PG+R7c6LyftP4Soynr63dnZG3EOxe8C+M7o9LNc7NVW+wlPbabK5IrryIcGTtgWkQSmmPxeKKMTyUU1sNQs9KSLF2f0beaC0A8JhedcVYvpzaOi32zLqp2w8WBpt3o7ZS3DG1ktEuHk5tLQQXxm0xoGkhUXnzLccLlfN3VnUDUesVc2jfrqanKzd12+wGOmcufO1rxK/9Gv/gwbOf+7mXFIqnn/scPz39ojvVBT0/+EHv//2/zz70oe33vvdA05G+ckuRh8V8niOEA116/cRZS20thq3XLQn17Qc79z2glHSMT23CjcdvTEatV8yZkTt3jfL+2rXp+MJj0dlw4fFjQqfjv/71Z2LxS//oHz11Ovlbt150p7rgQjBIjIzwfv/TS5cONh3lK7f0mLdgYKBb9QsABKKBpr+xh4Obm9avmmv1iwZq1q8Wu9ESNpnhQCiuurbleZ4HQri38Xr1q5vdQNXefbfvwYP+Gzf6vN4X3ZVObb/vfQCw/TM/s/0zPwMA28JGYw09P/xh/+c/35dq6X5XXyrV//nP9/zwh13pZxcd6Ssf4T2SqDbxpF7hc7qmbkYVEookeDaTSGRAOT09/KJ7dv48fdr3zW/23b/f5/X2FIsAsPWrv/qi+9Spyq/xyy9vkyQIhYcvu6r1/PCHfZ/97NY//acgkzVYrKz3//yfvs9+tuc3fqPxNp+/I31lLGFdYHA8VEb9sXg6y/FASnTTRoO2ctOD1honBpv/YUId2d7u/au/unD/ft/mZs/3vrev6enTF9Snrnn2yiu837/9wQ9CTw9///5WVdBAT6HQ+53vbL/88jOxGAii5yc/6c3nAaCHZXu/+93tCxe2y9cl29u9DNPzd3+3/corz+jKi2B7isUehgGAnnfe6e3t3X7Pe7ZJsvedd7YvXtw96+nhuJ4f/3j7ve/d7u+vuceWvsCTJ73ZbE+x+OwjH9l++eX63/NZ7/e+t93Ts/3BDzb4yofh6z/QKdb7N3/T9+abFzyenu98p+YC/H/6T0/Hxp5vp56Ti//5P1/83d8FlgWA7Y997Mkf/3HfV77S9yd/srvAs5s3371z58Jf/MXF1dWev/zL8odbn/1s6dOfht7e9/zcz0FVuX965w7/b//te973vmef+tS7X/hCZRcez8VPfar0+PHWL/1SzT0+VTWZ5d73P/4HMTfX841vAAC8/PITh+PJr/869PbCobEwYmPjwu/8zpN7957om8zLPADPwlCrCvk8D7XfCNeg6Tj05HIXNjf73nyz97//9yaLnv6zsJp6s9mLn/zk1mc+82RioucHP7jwpS89e//7t2/c2KaoC5/5zNPl5Wcf+9g2SUJv7wW//9mlS1t/+IfPRKKLXm/f7//+BbX6qVrN37t34Utf6r1798m9e9vvf/+zn/3ZNvbYeJWed97pf/XV7V/4Bf7Ro+2XX77w1a9e/NSn4KWXnhy6ur8QiVz4nd/ZstmOWr+gcQkrZLOHn0QkSKqLQ/sHlIpZhqfER9x+e2udVcdxNNJeq80VqsxaIYaWHlk1TZvS6zen7jF0N5836Pn+9/u+/OUL9+/3futbra5zRktY+Xr52S/90rNXXoFXXtmyWiufv/MOADz7J//k6cc/Xv7k3T/6I9i5DHzyG7/R9/u/3xeNPlWrn/6Lf9H37W8DwJZS+ax8Q6lh8F69PTZA/Omfwt/+benhw2cf/jAAbMlkL/3N31xcWHiq1W6/5z27i/V+5zvEb/3Ws09+sjQ7e7SjAAANS1jYPm6JHPpS1LU7ezOyuqvot1xd4affcuiP8uvX3lpn1XEcjaTDYo8Qw4t3J5QUcCzDi1tp6p4ejuv76lf73nyzLxiEra2jrXxGS9gzmWx7ePjib/92bzL5xGB49vM/X3fR/v6eUqnvW9/q/eu/7o3HAaDn7//+ePe4o/eb39xWqcr1CwCgp2frV36l1+Pp/bu/2/qFX6h89oMf9P/xH8P3v1/6gz+Aixfb6FiDEqaZvnPHWF3CGK/NFqKknT1i3RCmtnbeja4fjWwiwRCK+WmtVAAAAoGopSaQTr7xaLKjHZdKfX/xFxfu3+97+BB+8pP2ttFz1JLXwPY2PHnSw/NQ/qdUAp7f/bGNz5/89m8/+9jH2uzLe97z7p/92cUvf/nC8nKfzba1sMD/7u9u//RPH17ywre/fXFmBvr6nl29uvUrv9L75ptH/mvgiHus2NrqiUaf6fY/LPze90L5hG6nhF2cnIQLF+AnP7nwjW88uXatjY41upAckMqrJyxFvRZGODQ31Ol4B6a2dpTaWqcbTY5hNujwcNoJPZ3zuz3hDE9ItGO7x6Lm4d3F5TkgJMJaM9tqN+WD6+54ZQhCrDUZDsahFbPhgDecZDieICm5dsawf0h4a6svEul7882+Bw96/t//a3I0mun9q7+68MUvHqHEPHlyYIG9z3ketrc77E+1p5/4BLRbwgBgmyT5T37yyauvXvT5LkxMEARRMpsPLNObzxNXr279u39X+g//AS5eBJ6/2GBabE8PADQocK3scU9f3/a/+lc9mQxsb1e2DNDz/e8DwLPqiZBPnpTefvvim29e/Mxntj7+8WdHnyPZ8nB+3rMR4mQTRlUnFyiluGPc7OMkarVCRvMck8vlWICBcv4q8Lv5q+UTCbIqtdULMhlN0QSXijgtofDcQ4e+8VpMOODLEHsljI2HfCFWO6kV1+1Gk84LVHNr87zZbh7Pzd1e1ImrDkTeax63Z6gho04F6aDHl2KFMrVavtMNhvXEEqBQyohcxGWOZW+/vqASdLkbTY4hEw34MhwRjvlytFpBcYlN2yxDvG7VCOodXiikwykGgM8xHPBMPBjmy/fQhRINxdVtkg9A+SErHthUJJUSHyhhWf+CeSXCUjKljCZ5JuH2BodVWgHA9nbvf/kvFzyePo+nfLO/K/oePOh78KBbW+uunidP2l/3H/4BSqXt971v++WX+Zs3+/7szyrjgy+9BAA9O6kHvf/zf8KPfrT1b/5N+RrtwCzWyoDU7pyEixe3FYq9e7s83xcON99jfVtDQxdMpr5EYmtwsLJBj2f7n/2z6lsHT5zOrY9+dHtg4KXNTeKP/ujdP/mT3XrXolZLWHzDnSLUS8OdjXVgams3UltrdqPJMQQAyAQCiuk7rxuk/QBAvHYp4I+BRlv38DJepz3E8QA8B3zKZ1/xAQAAoZzT6OJ1m+QDINaZrDoA8Jsupw7Eg+Q9K/YIr55/tLzv+qLne98jfu/3+t5662gH4rTr4Jqf+MIXejc3n/77f//swx/u/du/7fnLv3x6+zYAPPv5n4ef+qk+r3f7/e+HH//42Uc+AgAX3nwTtrZ63nnnQtWUCwB49o//MQBc/PKXt375l7dJcuujH32m1/fZbMQXvrD9sz/b95Wv9EYiTffYwJObN/u+9KX+T33qyfz89nvfe+Gtt3qCQf7rX6+eULb9oQ8BwLOBgSd/+IcXf+u3Lvzqrz7Vao90KForYXnvRoilrxk1HT6DTIkpCETc6yqhUSNuc1skRZGQ6ji1tW438vFg9S+eUKYdrD4xEsiNjgf06i2beTw3fXvVIIUGqa3lM6SDqa2boXgG9KKud6MZcmh+ybATEKQZUrNQ431Ue4dXZbr/wAQAydXXpkKKxYcLVdd72vpNjWRD/hQvm54+GKa2/YEPlN54o+d//+8LX/1qn8/X++1vd/eSrSU9PdDXB/392xcvAkFAfz8QxDZBQPmfY/i80TzPZvjf/E3i3Xcvfvaz8Pd/DwBbi4tPxsYA4NkrrzxZX7/4m79JvPnm9kc/+pNvfOPJn/7pxZkZ4u7d7V/+5SdW64U///PdjTz9+Mf75ub6bLY+gK1Pf3rrox/lx8f7//qvL3z60/CBD2xNTpYmJvr/5b9svMcGtgWCdz2e/s997uL4OABsq1T8o0dP//k/r7nwk1//9Qtf+tLF+fmtr3/9SE8LtFTC4m53glAvtvR70hCmtrac2tpGN5ohhVWjVqrJ5d260+XDWx+TZkColtS5Vt7+8IefzMw8mZnp+e53+95+u8/n6/vGN6CDqy0A2NLpnltsWnUAACAASURBVN64sVdKLl4s/8fBElP+vPfUvNx++4MfLH32s7Cw0PvOO9vvfe/2T/3UbtOTa9eeXrnSUyw++8AHoLf3icHw9MoV+PGPtz/wAejp2Zdac/Fi6T/+x57f+z3Y3i7PyN8Wid798z/vsdvh5Ze3X3oJAP5h5zKz9h6fPKn7l82FC9Dbu/3BD777+c/3/MEf7HZgt/2pVvu0el49QfykrQdaWyhhee9GgKFGFrvyJiNMbW0xtbWNbrTnOA5vXQQAz3O756d1bL/yytNbt57eutXzox/1fu1rF77ylb6vfQ0OpVq2Ylsq3fq1X2uztydfX1/N8e/t97yneuLV9k//NNS/dVh+pnpPT8/2Bz/Y4h77V1f7/vAPay5Y+va3t37xF1vpQIeal7C4250AxdyhkCwAgHzUveEvDBpndEc7QROr9JMqvU56a9QV9OSNhsoxIQgCWI4D2FcsEwkGZHMLukoHCrVSWw+vtZvaWh5oqpvaWqMbjRSTbovFlaGuLd3Zi2atpLZaVflsFhpP/a2X2tqNbgBAvaPRQLPD200SuYQIJMKJokbV0jDC9ssvbxkMWwYDvPtu3ze+0efz9b39dvmuVqvO6LywE+LJJz/59OrVmk1Np/t3S7MSVj4FG56vOVaOqa1lzzm1tV43GhyNBpoc3qMr5dMZlgfgshwPfDaYTFIAcrkcAERDxiG3OWAzExNjOgVFcEwmwdLXdM3zMl96aWt4eGt4GLa2er/1rQtf+Uqfz9eTyzXvDZaw4/TsQx960V1oVsLibncCZNPG2vfM6EEZGYjxtEzSWlwynwk69+eUTi/NVc/SuDY/l7S5XOZxF0Alf1UEQ9MTQYvLOXXdWU5tnb/hWQlVb7bmWiKdYyL4qss5NVpObb2t88y6W+xGbaW415OhxtYOp7aq9coNWywVA+ZQaisAABdzmWOuyq4mbk8byr+xXe9Gg6PRQNPDe1Q5j2Vqc3dWhM825QMg1ItvL2v7QaCaW1si7a6A3ewDACBIemTpWt2L7hr6+p6p1bxaDZ/7XO9/+299Pl/fV77Sm0zWXR5L2Fn3ApIqMLX1WLpxyOGj0UArh7e7jtS9xnr+1/+q3MqMRg+MLj/95Cf5O3e6shd0Mr2ApAqBaKDpQEg3U1s76EZL6qW2Uq2mth5TWv6RCsRzrl9wxO41tv2RjzyZnX0yO9vz3e/2ffWrfT5f3ze/WbmViWdhZx2G7XQMU1tPjO1XXnk6Pv50fLznRz/qCwT6fL7ybHV0hmHkYXdkd1NbCVIsV+2mtubD7hArM+qPOAEfdUvVA3roTMIShhA6xU7NdGSEEDqseQkr5tPxaDgaTWYLpePuTamYbWMv7a2FWlTz8EatVy7dXH8h/UGoWpPhfO/Ca84IwxMkwXM8kLJri+szLT7Se3SY2noC4eFFJ1ujs7D0+k17THjtzluPHz189Pjx2jUqs2l31J9F2LmTn9r6nPbU0HPuxnM7vAi1odFZWCaVA3piUl6ZvzOoU1Kbmwzb7CHdZjC19ThSW7N+h4fTHIxILUTdG3Fq51tHPav+OMOBkFbpZqpukrZxeMvSxXTO7QlmWKBUhjHDYNVMr9r7ahgei1AbGp2FSWQ0ZLzWYL78Y9QTyhEylaSD+lWKO25etnkyIJTIZLQQmFyOhZ3EUZbdTRwt46pSWz0pFkiKpggm4rRcmfE2XYsJB3z++N6u2XjIF4iyjbrRhEA1tzavZDfN4wv+7P6xobzXPD7rSoBcpZITuYjP54tkWI6vdMOzYZsat/tZQkgwEZd5yh4tdr8bfDri8wQPLpwJun0xBgCKyfVbly2eHEFJJEI25py9YtoJNmnr8AIA8Ann1JQzxpFCyAWcs7M7Q2MN9sVEAz6vd8M0OruRAlLIpTZts9Zwsfm3RqiORmdh0sk3plOvOm2jKb9awsYiDDWyuNjK49x1YWrrsaW2UlKa8LHBEmj7IR30MpJhjbi/yDIcQVEUpDdW7jGK+ddXdSIAAKNmedTsskaHrar+9g8vk2GHFx8saACgMGi6vhJZT09OSiHtrr8vgLrhsQi1pckdyeEJg4LkmVgokuFIiVIj6eyhEEpMARtxr4ez7f/FS1IUCVzHqa11u5GPB6vF8/ubBXKj48HSEPjM4yZPZUyqbmpr2cHUVj4Tz3S9GwKKInmGYQAKfteKfcUVAwAmywJFafshGMmRSr1u5/+eQKFRkFwqmjm83yMcXmr4jYVKRqOIpoXAsRwANN3XwfBYJV0jPBahFjV8FW50ecoSAuXcnbkhMrGxYr9nnsot3l1uP/sQU1uPL7WVltJEJMtCMRVMAAkJf7CoJFmWoKQAYYYBLme7vJeEDjwPwp1rwjYPL1Gz9DTZV4PwWITa0KiEeZwBhp54vKwHANDOrFEwOrW54UlrJ9tPoMbU1mNLbaUogmOZbCycoq+NSQIuf4TRMDxJUwA8QQCpnF4bk1VvgBDS0P3DSzTYF0Jd16CERRkWCMXeX8j9tJQGyFSHemJqKwCclNRWlZiCVNLrT1DaiREZ6zb7PUIWaC0NIJLTEGDyUmmNqtje4a1P1WBfCHVdgxKmUsnIUGzD6iWNCprgczG3OwHUkHbv1w9TW8tOSGorTQETCjCUcVXcX9KpSXMgBMQQJQIAtUG9Ydu8aRVNG9USigCOZXIsIVNJBW0e3gYa7Auhrmt0IambX2LtdrfdXA7xJCjF8OKcqWpcB1Nby05IaitFU3wkJ9GqAaB/UKsW+nwMLaYBAETa5dvcsn3DZQ45d/annL6jkgraPLwNNNgXQl3XUlJFIZ/nCWGj66OjwNTWY+lGi50t5DmeGBg4WITaO7zt7QuhLmop8rB+9Gk7MLX1WLrRmnq7a+/wtrcvhLoIU1s7hqmtCL04GHnYHZjaitALgSUMIXSKYWorOu8K+Xw+X3jRvUBtajG1NRpNZp9DbzC19QQ63amt6fWbly9dvuWu3ei13rxy6er169evX7102RpubS10ojRLbbXedIZyPEEQPA+UenppUS89tvROTG09gc7w4U06LPYIMbx4d0JJAccyPOaWnUaNzsKiy6/aY8KxO28/fvTo0VtrI2TMbts41t5gamsrzmFqa/tfWTr5xqPHNZ/DzSYSDKEwTmulIoFANCCWi1tZC5009c/CikFviKVGloxyAQCAaHBiYihkDqzGJ4+ab3UAprZiauvRUlvb+8pEcN0drzz8INYeXAyAy3NASIQH/lfmm6yFTpr6Z2Ecy/IgHNh7dKhfMkgDm8nk667SFKa2YmprG6mt7X3lyrNebCbi8/mrktEK6XA4HA4HEwwHPBMPhiuSeWiwFjqp6p+FCSmKhFg8BbvJCQQQBLCdhA1iaiumtraV2trGV4Z+ncmqAwC/6XKq+q+GjNdpD3E8AM8Bn/LZV3wAAEAo5zTyARDXWQudVPVLWL/GaJREXCuvmaJqiRDYTCwSy/HQUewTJaYgEHGvq4RGjbjNh09IiiIh1XFqa91u5OPB6j+7Qpl2sPraTiA3Oh7Qq7ds5vHc9O1VgxQapLaWf2cPprZuhuIZ0Iu62w0BRZF8imEASL9rxZ5SCjXLGibLAiXR9sN6JEcqJ/YnqQZS0QyoDj4rfoTDezC1NVOV2tpgXwdTW1kgj+Mr16Uy3X9gAoDk6mtTIcXiwwXMXDzVGmbnG794l/Z4gnEmxxHCQeO8xG+5BwOtpVLUhKmtmNpaP7W1q18ZnRdNJlWINQaTxlD+71J02QX0sKyj4AFMbcXU1nq6+pXRedHyY97FuMsV4hTT+0KnMbUVADC1dZ/jSm094ldG50WjElbKJxM5luc4Jhn2ByI5cmh+ad+fS0xtLcPU1mrHkdraxlcu5dMZlgfgshwPfDaYTFIAcvnBsb8D2lsLvUCNShgTsptdGSCEFC1RGJe+eGjcClNbyzC1tVr3U1vb+so5j2Vqk9lZ0Geb8gEQ6sW3lxsN9be5FnqBXkBSBaa2Hks3Wuwsprais+UFRB5iauuxdKM1mNqKzhhMbe0YprYi9OJg5GF3YGorQi8EljCE0CmGqa0IoVOspRJWKmTT6doBFcloNBp/HvFVpzTQtevppnnP5KVLJn+zcAeEzolmJayQ9K5OXr8+Oj5lD+7/tUm6Ta9eujRlNptnxy9dmXREjzN9vOi3XB21R474bHd7ayGETo9GJSzpMb12fcoeAYoiDjQVggsWV4qeuPP48ePHb63doDObthX/cRYxDHRFCB3WaFIFSZCysaX7Rk3UesXM7GsKuCOcYq4yW1o0ODk/Fht1eQJZnbGj/PEzGegKAOliNufzBOPMwdTWQtLv8YczDE8IaZV2Rl+V+9KgqXrPSe+GPy1SGY1NO4nQWdToLEyst1prhuEU/NEMSDTKyo/FpMflzQHk4h0kHJzVQFcA4FOuqXG7nzmY2pr1msan7IEMQVEUkQs5zZcn15OlZk1Visl1s9keYsRYv9C51dbUVjbNACmjBwCgmPTYbK4EKBQ0E2M7iLk8o4GuAABMIlcrtdVrd8aIkdt3TSoBAMBEdHncvOn06dcNAw2adrdaSrvN5nuMbO7BapczIRA6RdqaVMHzPBAkFOJu0+iUKyeZvnN3SS8hgO/gPhklpoCNuNfD2fY3QlIUCVzHga51u5GPB6vFD9ykFciNjgdLQ+Azj5s8VUNjB1Nb+Uw8AwV/MMVL9AbVzoWnQLUwRPOZaKJR0w4+5THPurB+IdTWWRhBksBGVsZ9HKGeu7OslwJAjgMgOngk7owGugLUSW1l0yxP0PvD+cQUwbMssIW6TRWM1+XK8Iq5Oaxf6Lxrq4RRYoqAGCGbuzOv34lQSeZ4QtJR1NyZDHQ9rJLaSogAeJ7jdwL2AcpntyQJBNRtqqAM82Nhs81pcdBrMzVvICB0TrR1ISnQqWgAgt6tX6WkI8YQCq1ib5l81L1sdfiPPNVArNJPWr+4NiHhM0HP3pVaOYT14CViIsGAzLCgk4tFIpFIBLUSRw+vtRvoWlY30LVGNxopJt0zU5YQMbJ0Z7nuO88rqa0yoGgJCamqa0Mo+MMpoGUNm3ZR2sXbExJm02LxtNQ5hM6oRmdhxXQ4kuEA+CTDA89GQ36eAFKi1kgFw2NDbsvmTevA3JiCZGIb9k1GcuMN7d75AAa67qmkthJ8LrGT2iqAfo1hhA7ds5ukMDEkIdiU1+mMkepFgxT6pXWbqvRLjbcX81MW56sL5IPlulH9CJ1tjR7zzq7fHL2XO/AhfePuG5NSAEh7rTZXKMcBAEEpRuYW992Fy/tN4ysxnr62dndG3kLgZcG/MLo/wtQ4N2eQ79XEUtprs7kiufIiwpG1B6ZBKKU9FosrxvBQThw1CD0rIcXa/Rl5o7UAwGN61RVj+XKg67TYM+umbj9YGGzejdpKccfUSka7eDhWNOtftrsjiXIHCKFEbZieNu6+9TrsmHH6EgwPlf7Pzel2Tt/qNeU9k9ed5PzbqzpB5ThPrcSI4aX7Cy0NHSJ0xnSaVFHI5+unCh7ZWQt0bU2DY9jdw4vQ2YNhOwihUwzDdhBCpxiWMITQKYYlDCF0ip2XElbI5/P52mFADZoQQidcS7PzS4VsjiWk0hq3xho0taFUzDI8JRZ187WjVZM/AIihpUdWTdOm9PrNqXsM3fzxAITQi9WshBWS3g3nRiDFgnLxrVWtoLWm9hT9lqsr/PRbDn33SljSYbFHiOHFuxNKCjiW4cWtNCGETolGJSzpMdlcMYaUySiCZVpt6kTXQ1aziQRDKOantVIBAAgEopaaQDr5xqPJLncFIXQM2kxtbdDUhibRrNmgw8NpJ/R0zu/2hDM8IdGO7Uas1kxt3cXlOSAkwlpniLWb8sF1d7wyO1+sNRkOxoYVs+GAN5xkOJ4gKbl2xlA7TBUh9Hw0KmFivdV69KY2lENWgd8NWS2fjJGVh7aZaMCX4YhwzJej1QqKS2zaZhnidatGAFm3y+kFmYymaIJLRZyWUHjuoUMPhXQ4xQDwOYYDnokHw3z5IUihRENxdZvkA8DzHMeyPLCpSColPlDCsv4F80qEpWRKGU3yTMLtDQ6runAFjRBqV1thO93WJJoVACATCCim77xukPYDAPHapYA/Bhpt3dRWxuu0hzgegOeAT/nsKz4AACCUcxpdvG6TfADEOpNVBwB+0+XUgfyKvGfFHuHV84/wmWqETowTUcJaQA7NLxl2HoHWDKlZIGssRFEkpAocgMp0/4EJAJKrr02FFIsPF6qu97T1mxrJhvwpXjY9jfULoRPk1JQwYdWolWpyebfudDm1tT4mzYBQLcFnrhE6SU5LCavtOFJb6yIAeJ4rVWepIoResGObnd9OamvtkNUGmqW2dpNELiG4RDjRwStOEELd1mZqa4Om8rpHTW0FqBuy2kCT1NajK+XTGZYH4LIcD3w2mExSAHK5HABEQ8YhtzlgMxMTYzoFRXBMJsHS13StBDoihI5JoxLGBl0re6mtmYB9JQBA37irkQoaNJU/ogdlZCDG0zJJC6nNu67NzyVtLpd53AVQCVltWMKGpieCFpdz6rqzHG06f8OzEjrC/g7JeSxTm7vz3Hy2KR8AoV58e1nbDwLV3NoSaXcF7GYfAABB0iNL13B0H6EX6YRGHh4OWW2gldTW7jpS9xBCx+eEljCEEGrFeQnbQQidSVjCEEKnGJYwhNAphiUMIXSKtVTCSoVsOp0//Hkxm4xHo9FkjSaEEHoO2k1tzYcdNvvmTpgDQQ/P317Q4vODCKHnq9FZWNJjeu36lD0CFEUcaMonvDEYWrz71uPHj9+8fY1mAit2/3H2EyGEamgztXVAt/rGzrz0AdXMmNJniUXDoNMc3krLSvl4wOON5jgghUKSAAAgB02T2mzQ4eF000NExOcOxlkQDurHrqkG9p7rCbtXg0mG5YAUUrTWOKnBs0GEzos2U1sPIggg4OCp2pHkveZxe4YaMupUkA56fClWKFOr5QDAhAO+DMN6YglQKGVELuIyx7K3X19QCQBKcce42cdJ1GqFjOY5JpfLsQBYwhA6L7oRtlOMhhMcqdB0EiOf9LgToF5cs2oFAGCQwKvmGG0w7Zzp5SKZocWHVi0AlJKO0SmfOzSh0osg4Q/kyOG1ddPBjHuE0LnQhUkVYbs9wMnGJrSdbIRlWSCp3dsFlJAEjmNLO83Ckfn5yvb75RqlkM/EMwAAlJgCNuJeD2cxAweh86jTEhZ13LKFYGhxydDZWxhlGiXJhBb8WQAo5YMboRyh0Gh3x7tIcnBv7GuQJIHnOQAAsXFxfliYumcZ/cSVmzPL7nBHnUAInTYdXUhGHbcsPk69uGbVdBrbQJAkSXAJ++ilFQIAhIprS/N1c2w4Dgiykp0v1i18UbeQjXr9fm/AZbkcxFdwI3SOtF/Coqu3LAF+aHFtoeYdwHzUveEvDBpndNJWthbYCHHqpYdWVT6bBZIaENUPEkyvJ1hCNiip/kys0k+q9DrprVFX0JM3GnBAH6Hzoc3U1uT6LYsvQyqvSdmY11tZnqDVusHK6dhRU1sJAriYa8ERp0UCEUEQJCVRKOW7MyfYjDuaVtMkn4u5nZuM5Nr8kAgAiulghBHSlFBIEsBl/FEGhEr6KCGLCKFTrc3U1kwqwwOwsU1nbG95cpjaLWFHTW1V65UbtlgqBgxRfhsty/FC5fydVd0AAAAXc5ljLgAghBL1xO1pQznumc8EnSuRnbB9QihRTy/NqTAJGqFz42REHhbD1uuWhPr2g92XOpaSjvGpTbjx+I3JqPWKOTNy565R3l/7xdnFQp7jYWAArx4ROndOxkvY2GSGA6G46s0dPM/zQFB7Vale/QIAgWigbhtC6Ew7GSVMPKlX+JyuqZtRhYQiCZ7NJBIZUE5PD7/oniGETrSTcSEJAADZqD8WT2c5HghSLFcZtJUZ9/mwO8TKjHqcgI8QOugElTCEEDoqTG19rgr5fD5fOGoTQqielsbCSoVsjiWk0oEDH2ZyDMuDkJLIxWfqpYqlYpbhKXGD6bVHl/Zaba5QrjwBhBhaemTVNG1Kr9+cusfQ+LwBQnW1m9oaXb5qDuxMyAKSHp47M6mtRb/l6go//ZZD370SlnRY7BFiePHuhJICjmV4cStNCKFmGpWwpMdkc8UYUiajCHZ/5CFIDEt3xwalAwCQj67bLPfsTpV2uaOwiuepmE4LpHWffOL5Lu8um0gwhGJ+WisVAIBAIGqpCaSTbzya7HJXEDpb2kxtBZF0Zx4+DKgm9bJ7K7k0QEcl7PmlthajTrM5Qt1Yuj05WDWjrBj3uIJZ4HM5APA7V9PlJ8mJQcOMVgyQDTo8nHZCT+f8bk84wxMS7diktnLOFPd7wvEkw3I8QVKDWpNhX34tl+eAkAhrzV6r3ZQPrrvjlZNcsdZkOHg3tpgNB7zhJMPxBEnJtTOGTrLaEDrFupHaWkqmGSBl8o468jxTWwWqubV53mw3j+fmbi/qxJVqyHN5lmWB5wCA5zmWLZ+MkVz530w04MtwRDjmy9FqBcUlNm2zDPG6VSOArNvl9IJMRlM0waUiTksoPPfQoYdCOpxiAPgcwwHPxINhvpxsK5RoKK5uk3wAyg9Z8cCmIqmU+EAJy/oXzCsRlpIpZTTJMwm3Nzis0uLsXnQudTC1tZgOx3Icx8T9ngg5sjjdSW7+805t7RfrrHdpt8WyMjWVXrw9oxIBgEgzs6wBKPpnPrEC+vll/eF7FJlAQDF953WDtB8AiNcuBfwx0GhBbFx/uDfibpRPXnd63Vm9kfE67SGOB+A54FM++4oPAAAI5ZxGF6/bJB8Asc5k1QGA33R55y1RO/KeFXuEV88/Wq4bRoTQ+dFBCWNibpeX5TmW5UkZl2OKKlH7ZwJ1U1vLZ0gHU1s3Q/EM6EVAiSkIRNzrKqFRIz6493w8WP37L5RpB6vPzwRyo+MBvXrLZh7PTd9eNbQSCkQOzS+V6xcAaIbULJA1FqIoElIFDkBluv/ABADJ1demQorFhwtV13va+k2NZEP+FC+bnsb6hRBARyVMaly/bwSAUiHpW7E4Zy3E645WcnVqkmmUZCi04Ncv68Q7qa3G1lJbszbnPcvoPZJWqHWGBePeyWBsw2ZP7P5EKBfVgwMHbzJqJuZGElObLrtHud5C8CwprBq1Uk0u79ad8PrCRiCWYXdvBFBwPJg0A0K15Gzc/EWoY114RrJfJDdMDHnGN8OJor7dB66PI7VV73isb7zXfHjVYgvw6rk7i/oO5jIkHa9ZfMTw3NqikiIBIOEctaXa31xjBADPc7vnpwidb915zLvIsBwIKaqqfp341NZi0m2xuDLUtaU75aGwXQRBAMtxAK3O100kGJDNLegqNzQKPNftWRl7JHIJEUiEE0WNCgfwEWo3tbWYTeZ4kiQJ4Nhcyu92hUAxVz2mfsJTW7P+BbM9RqjnH1oPnesJtIO0zeVxuiUTaorgWQZolbRhNROSBGTCnqRySMgmvBuuzRjf2YVkKZ/OsDwAl+V44LPBZJICkMvlACAaMg65zQGbmZgY0ykogmMyCZa+ppPjSRk6l9pNbXVbZgOVoXJCKFGOLK5P7psUdqJTW0txrydDja05jLUnglybn0vaXC7zuAsAQDiy9sDUsIQNTU8ELS7n1HUnEELZ0MT8Dc9KqKWvXUfOY5na3J2J57NN+QAI9eLby9p+EKjm1pZIuytgN/sAAAiSHlm6hqP76JxqP6mim1mpJzW1tVAoiEStXk4WC3mB6LkOsx+pewidSe2PhXUzK/WkprYeqUA85/oFR+weQmcSprYihE6xExR5iKmtCKGjOkElDCGEjgpTWxFCp1hLJaxUyKbT+XqthWw2m812r0tnUKmYzRZKBz6MWq9curn+QvqD0JnRrIQVkt7VyevXR8en7MFijfZi2Do+Ojo6OrscP47unQlFv+XqqH13+hpCqHsalbCkx/Ta9Sl7BCiKqL1EMep0hoCma8Q1nGzFdPp57q7rMbAIobJ2U1sBACDusgdgeGmCsFsinXflhae2Zv0OD6c5GJFaiLo34pShks8a9az64wwHQlqlm6m6SVoztbVJDCwAAKSL6ZzbE8ywQKkMY4bBqpletffVMDwWofOm0VmYWG+1GusGGZbiqys+fnhuWtOVc7C81zw+60qAXKWSE7mIz+eLZFiOh3Jqq2fDNjVu97OEkGAiLvOUPVqsdMJx87LNkwGhRCajhcDkcmzj/QBUUluV7KZ5fMGf3Rui4tMRnyd4cOFM0O2LMQBQTK7fumzx5AhKIhGyMefsFZO3skzW7XJ6UiyQFE0RTMRpuTLjhZ0YWJbdjYEt4/aeAucTzqkpZ4wjhZALOGdnd4bGGuyLiQZ8Xu+GaXR2IwWkkEtt2mat4VoX+QidA+1ObS0lXfYAP7S4oBJAN0bBTkJqKyWlCR8bLIG2H9JBLyMZ1oj7iyzDERRFQXpj5R6jmH99VScCADBqlkfNLmt02Krqr5va2jQGlsmww4sPFjQAUBg0XV+JrKcnJ6WQdtffF0Dd8FiEzp82J1WkN1Z8nHpurqOw6Wp1U1vLDqa28pl4BgCAElPARtzr4WyN05B8PFgtfuCeqkBudDxYGgKfedzkSQOAgKJInmEYgILftWJfccUAgMmyQFHafghGcqRSr9upQgKFRkFyqWjm8H5JiiKBK7QyfE8Nv7FQOYYimhYCx3IA0HRfB8NjladvNBKh7mjrLCztXtnklIvTmu49mngiUltpKU1EsiwUU8EEkJDwB4tKkmUJSgoQZhjgcrbLVYN+PA/CnWvCNlNbiZqlp8m+GoTHInTetFPCoh53hgd+w3xrAwAAeIYFLmK/dYukDYtWXVsPO5+M1FaKIjiWycbCKframCTg8kcYDcOTNAXAEwSQyum1Mdm+bgtp6H5qK9FgXwihau2UMEpjvEYW9n5mE7lcjqIVCnpgb/bFqUxtVYkpSCW9/gSlnRiRsW6zz4bL5wAADqNJREFU3yNkgdbSACI5DQEmL5XWqIrNUluPGgOrarAvhFC1tlJbNcaZ6kGw+GooxEoMMzOnP7WVpoAJBRjKuCruL+nUpDkQAmKIEgGA2qDesG3etIqmjWoJRQDHMjmWkKmkgmaprUePgW2wL4RQtTZTW5tu95SmtlI0xUdyEq0aAPoHtWqhz8fQYhoAQKRdvs0t2zdc5pBzZ3/K6TsqqaB5autRY2Ab7AshVO1kJFWc1NTW+rsjBgYOFqFWUluPmrNab18IobKTEXl4UlNbj7S7VlJbj5qz+py/GkKnzskoYZjaihBqy8m4kAQATG1FCB3dCSphCCF0VJjairqgkM/n84XmyyHUbe2ntmYPyGNYQl2nO7U1vX7z8qXLt9y1G73Wm1cuXb1+/fr1q5cuW8OtrYVQtzQbzi8kvRvOjUCKBeXiW6u7j2FDdHnKHNj3ILNi/rED3yldS9FvubrCT7/l0DedsXbaJB0We4QYXrw7oaSAYxkec8vQc9aohCU9JpsrxpAyGUWwNSIPJTfWlvS7EyGI1uawngzFdFogbenJp644Camt7X9l6eQbjyZrtmQTCYZQzE9rpQIAEAhELa2FUBd1ktpKiKhuzifF1NZjTG1t7ysTwXV3vHKuLdYeXAyAy3NASIQHpq7lm6yFUBe1n9raZZjaeqypre195cqzXmwm4vP5q5LRCulwOBwOBxMMBzwTD4YrknlosBZCx6CTqa0Zj20mSpIkRQ9qdHpVR8MgmNp63KmtbXxl6NeZrDoA8Jsup6r/ash4nfYQxwPwHPApn33FBwAAhHJOIx8AcZ21EDoG7ZYwSjVyjeQBeI5lUj677557aOm+tf1TtrqpreXf2YOprZuheAb0IqDEFAQi7nWV0KgRH3wUJx8PVv8KCWXawepLTIHc6HhAr96ymcdz07dXDVIBRZF8imEASL9rxZ5SCjXLGibLAiXR9sN6JEcqJ/YnqQZS0QyoDj4rTlIUCam2UlszVamtDfZ1MLWVBfI4vnJdKtP9ByYASK6+NhVSLD5cwMxF9KK0W8LE2smZvb/246uvzfpcDqNmpt0hckxtrdJ+amtXvzJCp0B3npEc1MhIX4RlANr9k4+prdVbbTu1tatfGaFToDslLB3PcUBLq3/FMLV1z0lJbT3iV0boFGgrtVUqKOXTGY4gSQCOSQU9rns5euS2sWpAH1Nb9zZ6MlJb2/jKpXw6w/IAXJbjgc8Gk0kKQC4/OPZ3QHtrIdSeNlNbmdDKlKtyv5ygFENzawv6fX9GMbW1erMvPrW1ra+c81imNncnBPpsUz4AQr349nKjof4210KoPe0nVXQzKxVTW4+4L4RQWftjYd0MFMXU1iPuCyFUhqmtCKFT7ARFHmJqK0LoqE5QCUMIoaM6U6mtmB2K0HnTfmprtXw+mz3u2oHZoQihQ9pNbQUAgLR/1eUOxXIcAAB17fH9mePqZmOYHYrQedVoLGwvtZXMpBjFgRIWX71p9nGyEaNeq5BQJEGQA6IXMwEg6741uiGcf2tVhxMQEDpn2kxtLSUdKz5OuXh3WduFWZeYHYoQak+jEibWW611mhLeECMx3O9G/YJydmiEP1hlMkG3L2M0TFZSQHlgU5FUSry3WCEdTjEAfG4nO5QnAABAKNHIB+quhRA6Q9qc2prJsASZd68uRFM5hgOSlumME/uC348Cs0MRQu1pr4TFsyzwmUiQHNIZtEJgo94N52wqf+fujLydR3kxOxQh1J72ShgPPJDD81/cKRpatZC7bgt4EzPytsoIZocihNrS3tRWFSkEnqsKhxdo5RRwTLsXbKJ92aFDRMwfYRiGJynMDkUINdLm7PxBmuRT8fju27yK4TQDwuq04nzUvWx1+NOtbU8lpoApZ4fqRnRKMuH3JNkDObAIIXRQm6mtSsMQNRtwOgfnjQohn4u4nCFeNl111++oqa2YHYoQakObqa39g6bb85zNaRv3AQCQtHp6bd5QNSn+qKmtmB2KEGpDp0kVxXyeI4SN3taBEELHBsN2EEKn2JkK20EInTdYwhBCpxiWMITQKYYlDCF0irX0gFGpkM2xhFS6N7+rkM1yhxYjSOqk3ZosFbMMT4n396r8YsrHb0y+qF4hhLqlvdTWsH3cEuEPLktdu3N/5iTNHS36LVdX+Om3HPqTVVgRQt3SqITtpbZSBLsv8lAzfeeOsbqEMV6bLURJT9wjjfyhOosQOkvaTG0dkMqrnxqKei2McGhuqM28sCaprWIAgKhn1R9nOBDSKt1M1Tsl435POJ5kWI4nSGpQazJoAKAY97iCWeBzOQDwO1fTJAAAEIOGGe3OIwTpYjrn9gQzLFAqw9i+rLPa+8oGHR5OO6Gnc363J5zhCYl2bFKLMf0IvUiNhvPFeqvVqGm+jbxnI8TJjEZVu5drfDri8wQPfpoJun0xBgCKyfVbly2eHEFJJEI25py9YvJWlsm6XU5PigWSoimCiTgtV2a8AMBzeZZlWZYDAJ7n2AqO2z0p4xPOqSlnjCOFkAs4Z2fXK5832BcTDfi83g3T6OxGCkghl9q0zVrDxTa/M0KoG9pMba0W33CnCPXScPvnI41TW9MbK/cYxfzrqzoRAIBRszxqdlmjw1ZVP4iN6w+Nu9sxyievO73urN6omVnWABT9M59YAf38sv7Q6SGTYYcXHyxoAKAwaLq+EllPT05KIe2uvy8AgEwg8P/bu1/gxLE4DuA/9WqCAZOa1IChhhowUFEqyor2dma7nVm6YncFRVBDES0CENuKbUSLKIgdxC0nDsTSmdsgDsQGEwwYMMGASUxiiGnUCWhL/2zgws4ecL+PJS/vPcFvXl6Sb1yRq993HUsAQF6vl7k6+PymJ44QmtLUD1VIpVxVZbaDvim+HmShaUqXZRlA4bJn7Fm2DgByVwWa9i9Bpdaj3DuB2ypkcflclNYWOk/PQ9E0BZry9F7pU/TWl5PhAtPGMFbQVA0AxvZFbRx/HNQvAPBteN0MZW7KCKGfYtpVWCOfbxJvYne6eFWj1FZelkHrpTZr94frOlhvrwn5zEmuXO+od5eIk91SIM+WnjF9AVDWkQ8leQ5OMeoaof/WdCVMKuXKMr2dmPZLRg9TW+3lLFeTfbJOMTSATghQ7sjFO+doC2JlAKB1+Tp+TbaiFwk3TQFAM/021Z5iHMSgL4TQDJqqhDXy+Sa4osHnngWThHyOU9aCh4FJFmieFRrag9TW0LZTzce4glUFxs8A2FYZKMuSw7HztFmzKYMzehIYDkDRtYcPURBCQNU0gAlLrMegL4TQDDLaC+uLPMdxHFfib1NbOY7jxdt7cIMl2Na7p3vlMExtrRbP2JI00TgGqa1N2h9cWXIGvFS7XJUJTdsAwLvrtXaK+8mCIEpKX1EksSUIg1FYKQIdvtCSFKlVyRyF2fqDEmbxrzHQKaTzgtjtdsWGICpjhmHQF0JoBplMbYXhEswZCT7/idmfmNpq859+0k7ZXDZWTQ8OJlZ35MrjsMBGJFSJZ9PhvTQQq3MjdPymcFYdPe2r42grlc3GPmQBAKzbF1+PDBdkBn0hhGbQPEUe9hVJ08ny8uMi1Fcki21MPr+iKDbbv9ix+1FfCKGZMk8lDCGEHsGwHYTQHMMShhCaY1jCEEJzDEvYfFMkSZLGPSqC0OKaqITdKF1RfOb5rr4kNgReEFpd5eZnD+znuOl3n45NSL5Y3888e/xsETP7m+ub7/PP/1hK7r9Yf7m3t7f3cn0zyU/WCqEFYy61FQCgdPI6XZN1QhFd04FyvkpkDmfslcEFTm1tXcbZGtlKfA65adBUWcfcMvT/ZC61FcTMPlu3vrm6Oli1AUDj8n2syF76Zyt3GmYjtbUvihaHqdfgHQdf/n4+4L/bbMrEdRzxOywAYLHYJmqF0OIxmdraafeACQ3qFwCsBdx0sSirNwBm1juLnNraF9KxWI1+8/HTwdrIGnbMlEklk28MQ4NW/I8PA9AkDYjd+uidAWlMK4QWj8nUVruTgU4pWRlukAmFao84PXaT12uLnNpq8UQvjt1qMfbhhOve78qNmbKua5qqqmqndn3NjSSjKSLP8zxfacoa6HKjwg+1JDBohdDiMplU4Tj4Emn/lk69bXNeu1qvyfR2IrEz5iWfH1rs1NallUDyM5OPx8/CYTHx6dBjGztlWAocJQMAwB1tttWRc3VKabaq6QC6Bnr7mj27BgAA4o76Vpdh5QetEFpc5sN2tkK7fCzbrFdlAMrl9tnNv05ooWlKb8syAMVlz9i22+o79cldFWi7fwkytR7lDj1MUi23hQ54Hm+8UTRNQdtUamtnJLXVoK/Hqa0qDKMTpUZltGpYnf610YJuWQ1efmXO36diH3qRT+e7DuMp/5Dn6M+vRwDQOn8drroS305m7AYKQr+ayRKmCKfheBXc0avoBtXMnbF/xMK9xOdTk9mH85/aWs+l2Ob92d0J79ry41LkC0W3m+Fili24M7tGU0YITcpkCSukyzIT+n66AwDgP7yg4W24mCuI/gNT/8D5T23dufw+JiZR4s/jqbLujV4ldlYAwGDKCKFJmSthgqwCcd3/2ZYYBwPQGc1MxdTWEf1WPh7PduhXH68GW2FgOGWE0KSMSlhf5GsdDUBv3aa26gQou9fn8HicVLWeS5aooIsheq+ezzeB3vDb79oKuVS2rEFZXnFlJtnmH6S2ynTwfGXpJuClYuUqkI3b1NZcqriftEWCXjtNQFPlnkqcHoflLrXVvWFVm6VctljXRy8kLf41JpUtpPP2kJcmuioD43EYVjODvkzrcicxtk68x9+SgQmnfCOJHVUH0LqaDnq30mrRAKurYx66M9cKoblmMrU1cPxRZdk8GxtkpBLatZWIHq3d7/5gauvQTaNU6NDvLi6ffGHAYMq9QjxcvHsS7zoVvgYg3sRfp0Zb/SZbITTXpo08VCRJJ9Zl26/4k2BqK0LoEUxtRQjNMQzbQQjNMSxhCKE5hiUMITTHsIShBzAGFs2XfwB1Ws9n0R5KWwAAAABJRU5ErkJggg==;" vertex="1" parent="1">
          <mxGeometry x="200" y="80" width="406" height="326" as="geometry" />
        </mxCell>
      </root>
    </mxGraphModel>
  </diagram>
</mxfile>
